<?xml version="1.0" encoding="utf-8"?>
<!-- Generator: Adobe Illustrator 18.1.1, SVG Export Plug-In . SVG Version: 6.00 Build 0)  -->
<!DOCTYPE svg PUBLIC "-//W3C//DTD SVG 1.1//EN" "http://www.w3.org/Graphics/SVG/1.1/DTD/svg11.dtd">
<svg version="1.1" id="Layer_1" xmlns="http://www.w3.org/2000/svg" xmlns:xlink="http://www.w3.org/1999/xlink" x="0px" y="0px"
	 viewBox="0 0 1041.8 792" enable-background="new 0 0 1041.8 792" xml:space="preserve">
<g>
	<g>
		<path d="M477.5,476.9c-8.1,0-15.2-7.1-15.2-16.2c0-9.1,7.1-16.2,15.2-16.2c9.1,0,16.2,7.1,16.2,16.2
			C493.7,469.8,485.6,476.9,477.5,476.9z M487.6,417c0,5.1-4.1,9.1-10.1,9.1c-5.1,0-10.1-4.1-10.1-9.1c0-8.1-4.1-99.5-4.1-100.5
			c0-7.1,6.1-13.2,14.2-13.2c8.1,0,13.2,6.1,13.2,13.2C491.7,317.6,487.6,408.9,487.6,417z"/>
		<path d="M625.6,475.9c-6.1,0-11.2-5.1-11.2-11.2v-8.1c-9.1,12.2-24.4,20.3-40.6,20.3c-31.5,0-54.8-24.4-54.8-65
			c0-39.6,22.3-65,54.8-65c16.2,0,30.4,8.1,40.6,21.3v-54.8c0-6.1,5.1-11.2,12.2-11.2c6.1,0,11.2,5.1,11.2,11.2v151.2
			C636.8,470.8,631.7,475.9,625.6,475.9z M614.5,386.6c-6.1-10.1-20.3-18.3-34.5-18.3c-23.3,0-37.6,19.3-37.6,44.7
			s14.2,44.7,37.6,44.7c14.2,0,28.4-8.1,34.5-18.3V386.6z"/>
		<path d="M775.8,420.1h-86.3c2,21.3,17.3,38.6,42.6,38.6c10.1,0,21.3-4.1,30.4-10.1c2-1,3-1,5.1-1c4.1,0,9.1,4.1,9.1,9.1
			c0,14.2-31.5,20.3-47.7,20.3c-36.5,0-63.9-26.4-63.9-65c0-35.5,25.4-65,61.9-65c29.4,0,50.7,18.3,57.9,46.7c1,4.1,2,9.1,2,14.2
			C788,415,781.9,420.1,775.8,420.1z M727.1,366.3c-24.4,0-36.5,20.3-37.6,37.6h75.1C764.7,387.6,753.5,366.3,727.1,366.3z"/>
		<path d="M904.7,475.9L904.7,475.9c-5.1,0-11.2-4.1-11.2-11.2v-4.1c-10.1,11.2-24.4,17.3-40.6,17.3c-20.3,0-42.6-14.2-42.6-40.6
			c0-27.4,22.3-40.6,42.6-40.6c17.3,0,30.4,5.1,40.6,16.2v-20.3c0-15.2-13.2-24.4-30.4-24.4c-11.2,0-21.3,4.1-30.4,11.2
			c-2,1-4.1,2-6.1,2c-5.1,0-9.1-4.1-9.1-9.1c0-2,1-4.1,2-6.1c12.2-12.2,30.4-17.3,46.7-17.3c26.4,0,49.7,11.2,49.7,42.6v73.1
			C915.9,470.8,910.8,475.9,904.7,475.9z M892.6,426.2c-7.1-9.1-19.3-14.2-31.5-14.2c-16.2,0-28.4,10.1-28.4,25.4
			c0,14.2,12.2,24.4,28.4,24.4c13.2,0,25.4-5.1,31.5-14.2V426.2z"/>
		<path d="M993,477.9c-17.3,0-35.5-5.1-46.7-16.2c-2-2-3-4.1-3-6.1c0-5.1,5.1-9.1,10.1-9.1c2,0,4.1,1,6.1,2
			c9.1,7.1,22.3,12.2,34.5,12.2c17.3,0,26.4-8.1,26.4-19.3c0-27.4-75.1-9.1-75.1-55.8c0-19.3,17.3-36.5,46.7-36.5
			c17.3,0,33.5,5.1,42.6,15.2c2,2,2,4.1,2,6.1c0,5.1-4.1,9.1-9.1,9.1c-2,0-4.1-1-5.1-2c-8.1-6.1-19.3-9.1-30.4-9.1
			c-15.2,0-25.4,7.1-25.4,17.3c0,24.4,75.1,8.1,75.1,55.8C1042.8,460.7,1025.5,477.9,993,477.9z"/>
	</g>
</g>
<g>
	<g>
		<path d="M199.6,505.1H152c-7.5,0-13.8-6.3-13.8-13.8v-10.9C95.8,465,67.1,424.3,67.1,378.4c0-60.2,48.8-109,109-109
			s109,48.8,109,109c0,45.9-28.7,86.6-71.1,102.1v10.9C213.4,498.8,207.6,505.1,199.6,505.1z M166.3,477h19.5v-6.9
			c0-6.3,4.6-12,10.3-13.8c35.6-9.2,60.8-41.3,60.8-78c0-44.7-36.1-80.9-80.9-80.9s-80.9,36.1-80.9,80.9c0,36.7,24.7,68.8,60.8,78
			c6.3,1.7,10.3,6.9,10.3,13.8L166.3,477L166.3,477z"/>
	</g>
	<g>
		<path d="M175.5,595.2c-29.3,0-56.2-14.3-71.7-39c-4-6.3-2.3-14.9,4-19.5c6.3-4,14.9-2.3,19.5,4c10.9,16.6,28.7,26.4,48.2,26.4
			c18.9,0,36.1-9.2,47-24.7c4.6-6.3,13.2-8,19.5-3.4c6.3,4.6,8,13.2,3.4,19.5C230,582,203.6,595.2,175.5,595.2z"/>
	</g>
	<g>
		<path d="M37.9,387H13.8C6.3,387,0,380.7,0,373.2s6.3-13.8,13.8-13.8h23.5c7.5,0,13.8,6.3,13.8,13.8C51.6,380.7,45.3,387,37.9,387z
			"/>
	</g>
	<g>
		<path d="M72.3,294.6c-3.4,0-6.9-1.1-9.8-4l-27-27c-5.7-5.7-5.7-14.3,0-19.5c5.7-5.7,14.3-5.7,19.5,0l27,27
			c5.7,5.7,5.7,14.3,0,19.5C79.1,293.5,75.7,294.6,72.3,294.6z"/>
	</g>
	<g>
		<path d="M176.1,252.2c-7.5,0-13.8-6.3-13.8-13.8v-39.6c0-7.5,6.3-13.8,13.8-13.8c7.5,0,13.8,6.3,13.8,13.8v39.6
			C189.8,246.5,183.5,252.2,176.1,252.2z"/>
	</g>
	<g>
		<path d="M273.6,300.9c-3.4,0-6.9-1.1-9.8-4c-5.7-5.7-5.7-14.3,0-19.5l32.7-32.7c5.7-5.7,14.3-5.7,19.5,0c5.7,5.7,5.7,14.3,0,19.5
			l-32.7,32.7C281,299.2,277.6,300.9,273.6,300.9z"/>
	</g>
	<g>
		<path d="M337.8,387h-23.5c-7.5,0-13.8-6.3-13.8-13.8s6.3-13.8,13.8-13.8h23.5c7.5,0,13.8,6.3,13.8,13.8
			C352.2,380.7,345.8,387,337.8,387z"/>
	</g>
</g>
</svg>
