<?xml version="1.0" encoding="utf-8"?>
<!-- Generator: Adobe Illustrator 18.1.1, SVG Export Plug-In . SVG Version: 6.00 Build 0)  -->
<!DOCTYPE svg PUBLIC "-//W3C//DTD SVG 1.1//EN" "http://www.w3.org/Graphics/SVG/1.1/DTD/svg11.dtd">
<svg version="1.1" id="Layer_1" xmlns="http://www.w3.org/2000/svg" xmlns:xlink="http://www.w3.org/1999/xlink" x="0px" y="0px"
	 viewBox="0 0 61.4 71.5" enable-background="new 0 0 61.4 71.5" xml:space="preserve">
<g>
	<g>
		<path d="M34.8,55.8h-8.3c-1.3,0-2.4-1.1-2.4-2.4v-1.9c-7.4-2.7-12.4-9.8-12.4-17.8c0-10.5,8.5-19,19-19s19,8.5,19,19
			c0,8-5,15.1-12.4,17.8v1.9C37.2,54.7,36.2,55.8,34.8,55.8z M29,50.9h3.4v-1.2c0-1.1,0.8-2.1,1.8-2.4c6.2-1.6,10.6-7.2,10.6-13.6
			c0-7.8-6.3-14.1-14.1-14.1c-7.8,0-14.1,6.3-14.1,14.1c0,6.4,4.3,12,10.6,13.6c1.1,0.3,1.8,1.2,1.8,2.4V50.9z"/>
	</g>
	<g>
		<path d="M30.6,71.5c-5.1,0-9.8-2.5-12.5-6.8c-0.7-1.1-0.4-2.6,0.7-3.4c1.1-0.7,2.6-0.4,3.4,0.7c1.9,2.9,5,4.6,8.4,4.6
			c3.3,0,6.3-1.6,8.2-4.3c0.8-1.1,2.3-1.4,3.4-0.6c1.1,0.8,1.4,2.3,0.6,3.4C40.1,69.2,35.5,71.5,30.6,71.5z"/>
	</g>
	<g>
		<path d="M6.6,35.2H2.4c-1.3,0-2.4-1.1-2.4-2.4c0-1.3,1.1-2.4,2.4-2.4h4.1c1.3,0,2.4,1.1,2.4,2.4C9,34.1,7.9,35.2,6.6,35.2z"/>
	</g>
	<g>
		<path d="M12.6,19.1c-0.6,0-1.2-0.2-1.7-0.7l-4.7-4.7c-1-1-1-2.5,0-3.4c1-1,2.5-1,3.4,0l4.7,4.7c1,1,1,2.5,0,3.4
			C13.8,18.9,13.2,19.1,12.6,19.1z"/>
	</g>
	<g>
		<path d="M30.7,11.7c-1.3,0-2.4-1.1-2.4-2.4V2.4c0-1.3,1.1-2.4,2.4-2.4c1.3,0,2.4,1.1,2.4,2.4v6.9C33.1,10.7,32,11.7,30.7,11.7z"/>
	</g>
	<g>
		<path d="M47.7,20.2c-0.6,0-1.2-0.2-1.7-0.7c-1-1-1-2.5,0-3.4l5.7-5.7c1-1,2.5-1,3.4,0c1,1,1,2.5,0,3.4l-5.7,5.7
			C49,19.9,48.4,20.2,47.7,20.2z"/>
	</g>
	<g>
		<path d="M58.9,35.2h-4.1c-1.3,0-2.4-1.1-2.4-2.4c0-1.3,1.1-2.4,2.4-2.4h4.1c1.3,0,2.4,1.1,2.4,2.4C61.4,34.1,60.3,35.2,58.9,35.2z
			"/>
	</g>
</g>
</svg>
