<?xml version="1.0" encoding="utf-8"?>
<!-- Generator: Adobe Illustrator 18.0.0, SVG Export Plug-In . SVG Version: 6.00 Build 0)  -->
<!DOCTYPE svg PUBLIC "-//W3C//DTD SVG 1.1//EN" "http://www.w3.org/Graphics/SVG/1.1/DTD/svg11.dtd">
<svg version="1.1" id="Layer_1" xmlns="http://www.w3.org/2000/svg" xmlns:xlink="http://www.w3.org/1999/xlink" x="0px" y="0px"
	 width="60px" height="60px" viewBox="0 0 60 60" enable-background="new 0 0 60 60" xml:space="preserve">
<path fill="#010101" d="M42.1,38h-2.7l-0.9-1c3.3-3.8,5.3-8.8,5.3-14.3c0-12.1-9.8-21.9-21.9-21.9S0,10.6,0,22.7
	c0,12.1,9.8,21.9,21.9,21.9c5.5,0,10.4-2,14.2-5.3l0.9,0.9v2.6l16.9,16.9l5.1-5L42.1,38z M21.9,37.8c-8.4,0-15.1-6.8-15.1-15.1
	c0-8.4,6.8-15.1,15.1-15.1s15.1,6.8,15.1,15.1C37.1,31.1,30.2,37.8,21.9,37.8z"/>
</svg>
