<?xml version="1.0" encoding="utf-8"?>
<!-- Generator: Adobe Illustrator 18.0.0, SVG Export Plug-In . SVG Version: 6.00 Build 0)  -->
<!DOCTYPE svg PUBLIC "-//W3C//DTD SVG 1.1//EN" "http://www.w3.org/Graphics/SVG/1.1/DTD/svg11.dtd">
<svg version="1.1" id="Layer_1" xmlns="http://www.w3.org/2000/svg" xmlns:xlink="http://www.w3.org/1999/xlink" x="0px" y="0px"
	 width="60px" height="60px" viewBox="0 0 60 60" enable-background="new 0 0 60 60" xml:space="preserve">
<g>
	<path d="M30,12.3c-8.8,0-16.2,7.1-16.2,15.9C13.8,35,18,41,24,43.2v1.6c0,1.1,1.4,2.2,2.5,2.2h7c1.2,0,1.5-1.1,2.5-2.2v-1.6
		C42,41,46.2,35,46.2,28.3C46.2,19.5,38.8,12.3,30,12.3z M32.7,39.7c-0.8,0.3-1.7,1.1-1.7,2V43h-2.4l0-1.2c0-1-0.6-1.8-1.5-2.1
		c-5.3-1.3-8.9-6.1-8.9-11.4c0-6.6,5.3-11.9,11.8-11.9c6.6,0,11.7,5.3,11.7,11.8C41.7,33.7,37.9,38.3,32.7,39.7z"/>
	<path d="M39.7,51.8c-0.9-0.7-2.2-0.4-2.9,0.5c-1.6,2.3-4.1,3.6-6.9,3.6c-2.9,0-5.5-1.4-7.1-3.9c-0.7-0.9-1.9-1.2-2.9-0.6
		c-0.9,0.7-1.2,1.9-0.6,2.9C21.7,57.9,25.7,60,30,60c4.1,0,8-1.9,10.2-5.4C40.9,53.7,40.6,52.5,39.7,51.8z"/>
	<path d="M9.7,26H6.3c-1.1,0-2,0.9-2,2s0.9,2,2,2h3.5c1.1,0,2-0.9,1.9-2C11.8,26.9,10.8,26,9.7,26z"/>
	<path d="M16.3,15.4c0.8-0.8,0.8-2,0-2.9l-3.9-3.9c-0.8-0.8-2-0.8-2.9,0c-0.8,0.8-0.8,2,0,2.9l3.9,3.9c0.4,0.4,0.9,0.6,1.4,0.6
		S15.9,15.9,16.3,15.4z"/>
	<path d="M30,9.8c1.1,0,2-0.8,2-2V2c0-1.1-0.9-2-2-2c-1.1,0-2,0.9-2,2v5.8C28,8.9,28.9,9.8,30,9.8z"/>
	<path d="M44.3,17c0.6,0,1.1-0.2,1.4-0.6l4.8-4.8c0.8-0.8,0.8-2,0-2.9c-0.8-0.8-2-0.8-2.9,0l-4.8,4.8c-0.8,0.8-0.8,2,0,2.9
		C43.3,16.8,43.8,17,44.3,17z"/>
	<path d="M53.7,26h-3.4c-1.1,0-2,0.9-2,2s0.9,2,2,2h3.4c1.2,0,2.1-0.9,2-2C55.7,26.9,54.8,26,53.7,26z"/>
</g>
</svg>
