<?xml version="1.0" encoding="utf-8"?>
<!-- Generator: Adobe Illustrator 18.0.0, SVG Export Plug-In . SVG Version: 6.00 Build 0)  -->
<!DOCTYPE svg PUBLIC "-//W3C//DTD SVG 1.1//EN" "http://www.w3.org/Graphics/SVG/1.1/DTD/svg11.dtd">
<svg version="1.1" id="Layer_1" xmlns="http://www.w3.org/2000/svg" xmlns:xlink="http://www.w3.org/1999/xlink" x="0px" y="0px"
	 width="60px" height="60px" viewBox="0 0 60 60" enable-background="new 0 0 60 60" xml:space="preserve">
<g>
	<path d="M54.3,2.1c-0.4-0.2-0.9-0.1-1.2,0.2C50.4,5,47.9,6,43.8,6c-5,0-10.6-2.4-13.2-5.6c-0.4-0.5-1.2-0.5-1.6,0
		C26.3,3.6,20.8,6,15.7,6c-4.1,0-6.6-1-9.3-3.7C6.2,2,5.9,1.9,5.5,2.1C5.1,2.2,5,2.6,5,3v36c0,0.1-0.1,0.1-0.1,0.2
		C5,39.8,7.6,53.8,29.5,59.9c0.1,0,0.1,0,0.2,0s0.2,0,0.3,0c21.9-6.1,24.7-20.2,24.8-20.8c0-0.1,0.1-0.1,0.1-0.2V3
		C55,2.6,54.6,2.2,54.3,2.1z M53,38.9c0,0.5-1,3.6-3.9,7.3c-2.9,3.7-8.7,8.7-19.3,11.7c-10.6-3-16.2-8-19.1-11.7
		C7.8,42.5,7,39.4,7,38.9V5.2c2,2,5,2.8,8.9,2.8c5.2,0,10.7-2.2,13.9-5.5C33,5.8,38.7,8,43.9,8C47.7,8,50,7.2,53,5.2V38.9z"/>
	<path d="M35,24v-9c0-0.6-0.7-1-1.3-1h-8c-0.6,0-0.7,0.4-0.7,1v9h-9.3c-0.6,0-0.7,0.4-0.7,1v8c0,0.6,0.2,1,0.7,1H25v9
		c0,0.6,0.2,1,0.7,1h8c0.6,0,1.3-0.5,1.3-1v-9h8.7c0.6,0,1.3-0.5,1.3-1v-8c0-0.6-0.7-1-1.3-1H35z M43,32h-9.3c-0.6,0-0.7,0.4-0.7,1
		v9h-6v-9c0-0.6-0.7-1-1.3-1H17v-6h8.7c0.6,0,1.3-0.5,1.3-1v-9h6v9c0,0.6,0.2,1,0.7,1H43V32z"/>
</g>
</svg>
