<?xml version="1.0" encoding="utf-8"?>
<!-- Generator: Adobe Illustrator 18.0.0, SVG Export Plug-In . SVG Version: 6.00 Build 0)  -->
<!DOCTYPE svg PUBLIC "-//W3C//DTD SVG 1.1//EN" "http://www.w3.org/Graphics/SVG/1.1/DTD/svg11.dtd">
<svg version="1.1" id="Layer_1" xmlns="http://www.w3.org/2000/svg" xmlns:xlink="http://www.w3.org/1999/xlink" x="0px" y="0px"
	 width="60px" height="60px" viewBox="0 0 60 60" enable-background="new 0 0 60 60" xml:space="preserve">
<g>
	<path fill="#010101" d="M20.9,12.8h37.3c0.6,0,1-0.4,1-1c0-0.6-0.4-1-1-1H20.9c-0.6,0-1,0.4-1,1C19.9,12.5,20.3,12.8,20.9,12.8z"/>
	<path fill="#010101" d="M58.2,28.5H20.9c-0.6,0-1,0.4-1,1c0,0.6,0.4,1,1,1h37.3c0.6,0,1-0.4,1-1C59.2,28.9,58.8,28.5,58.2,28.5z"/>
	<path fill="#010101" d="M58.2,46.2H20.9c-0.6,0-1,0.4-1,1s0.4,1,1,1h37.3c0.6,0,1-0.4,1-1S58.8,46.2,58.2,46.2z"/>
	<path fill="#010101" d="M7.2,5c-3.8,0-6.9,3-6.9,6.9s3,6.9,6.9,6.9s6.9-3,6.9-6.9S11,5,7.2,5z M7.2,16.8c-2.7,0-4.9-2.2-4.9-4.9
		S4.4,7,7.2,7s4.9,2.2,4.9,4.9S9.9,16.8,7.2,16.8z"/>
	<path fill="#010101" d="M7.2,22.7c-3.8,0-6.9,3-6.9,6.9s3,6.9,6.9,6.9s6.9-3,6.9-6.9S11,22.7,7.2,22.7z M7.2,34.4
		c-2.7,0-4.9-2.2-4.9-4.9s2.2-4.9,4.9-4.9s4.9,2.2,4.9,4.9S9.9,34.4,7.2,34.4z"/>
	<path fill="#010101" d="M7.2,40.3c-3.8,0-6.9,3-6.9,6.9s3,6.9,6.9,6.9s6.9-3,6.9-6.9S11,40.3,7.2,40.3z M7.2,52.1
		c-2.7,0-4.9-2.2-4.9-4.9s2.2-4.9,4.9-4.9s4.9,2.2,4.9,4.9S9.9,52.1,7.2,52.1z"/>
</g>
</svg>
