<?xml version="1.0" encoding="utf-8"?>
<!-- Generator: Adobe Illustrator 18.0.0, SVG Export Plug-In . SVG Version: 6.00 Build 0)  -->
<!DOCTYPE svg PUBLIC "-//W3C//DTD SVG 1.1//EN" "http://www.w3.org/Graphics/SVG/1.1/DTD/svg11.dtd">
<svg version="1.1" id="Layer_1" xmlns="http://www.w3.org/2000/svg" xmlns:xlink="http://www.w3.org/1999/xlink" x="0px" y="0px"
	 width="60px" height="60px" viewBox="0 0 60 60" enable-background="new 0 0 60 60" xml:space="preserve">
<g>
	<path fill="#231F20" d="M59.5,28.2c-0.2-0.2-3.4-4.1-8.6-8.1C46.1,16.5,38.6,12,30.1,12c-8.5,0-16,4.3-20.8,8.1
		c-5.2,4-8.5,7.9-8.6,8.1c-0.3,0.3-0.3,0.8,0,1.2C1.2,30.1,14,46.6,30.1,46.6c16.1,0,28.9-16.5,29.4-17.2
		C59.8,29.1,59.8,28.6,59.5,28.2z M30.1,44.6c-13.4,0-24.9-12.8-27.3-15.8C5.3,25.9,16.7,14,30.1,14c13.4,0,24.8,11.9,27.3,14.8
		C55,31.8,43.5,44.6,30.1,44.6z"/>
	<path fill="#231F20" d="M30.1,17.9c-6,0-10.9,4.8-10.9,10.9c0,6,4.8,10.9,10.9,10.9c6,0,10.9-4.8,10.9-10.9
		C40.9,22.8,36.1,17.9,30.1,17.9z M30.1,37.7c-4.9,0-8.9-3.9-8.9-8.9c0-4.9,3.9-8.9,8.9-8.9c4.9,0,8.9,3.9,8.9,8.9
		C39,33.7,35,37.7,30.1,37.7z"/>
	<path fill="#231F20" d="M30.1,22.9c-0.6,0-1,0.4-1,1s0.4,1,1,1c2.2,0,3.9,1.8,3.9,3.9s-1.8,3.9-3.9,3.9c-2.2,0-3.9-1.8-3.9-3.9
		c0-0.6-0.4-1-1-1s-1,0.4-1,1c0,3.3,2.7,5.9,5.9,5.9c3.3,0,5.9-2.7,5.9-5.9C36,25.5,33.3,22.9,30.1,22.9z"/>
</g>
</svg>
