<?xml version="1.0" encoding="utf-8"?>
<!-- Generator: Adobe Illustrator 18.0.0, SVG Export Plug-In . SVG Version: 6.00 Build 0)  -->
<!DOCTYPE svg PUBLIC "-//W3C//DTD SVG 1.1//EN" "http://www.w3.org/Graphics/SVG/1.1/DTD/svg11.dtd">
<svg version="1.1" id="Layer_1" xmlns="http://www.w3.org/2000/svg" xmlns:xlink="http://www.w3.org/1999/xlink" x="0px" y="0px"
	 width="60px" height="60px" viewBox="0 0 60 60" enable-background="new 0 0 60 60" xml:space="preserve">
<g>
	<path d="M58.9,58H56V21c0-0.6-0.6-1-1.1-1h-8c-0.6,0-0.9,0.4-0.9,1v37h-4V39c0-0.6-0.6-1-1.1-1h-8c-0.6,0-0.9,0.4-0.9,1v19h-4V33
		c0-0.6-0.6-1-1.1-1h-8c-0.6,0-0.9,0.4-0.9,1v25h-4V47c0-0.6-0.6-1-1.1-1h-8C4.3,46,4,46.4,4,47v11H0.9c-0.6,0-1,0.4-1,1s0.4,1,1,1
		h4h8h6h8h6h8h6h8h4c0.6,0,1-0.4,1-1S59.4,58,58.9,58z M6,58V48h6v10H6z M20,58V34h6v24H20z M34,58V40h6v18H34z M48,58V22h6v36H48z"
		/>
	<path d="M7.9,33c2.2,0,4-1.8,4-4c0-0.6-0.2-1.2-0.4-1.8l9.2-7.9c0.6,0.4,1.4,0.7,2.3,0.7c1.3,0,2.5-0.7,3.2-1.6l7.8,3.1
		c0,0.2-0.1,0.3-0.1,0.5c0,2.2,1.8,4,4,4s4-1.8,4-4c0-0.9-0.3-1.7-0.8-2.3L51.2,7.6C51.7,7.8,52.3,8,52.9,8c2.2,0,4-1.8,4-4
		s-1.8-4-4-4s-4,1.8-4,4c0,0.9,0.3,1.7,0.8,2.3L39.6,18.4C39,18.1,38.5,18,37.9,18c-1.3,0-2.5,0.7-3.2,1.6l-7.8-3.1
		c0-0.2,0.1-0.3,0.1-0.5c0-2.2-1.8-4-4-4s-4,1.8-4,4c0,0.6,0.2,1.2,0.4,1.8l-9.2,7.9C9.5,25.3,8.7,25,7.9,25c-2.2,0-4,1.8-4,4
		C3.9,31.2,5.7,33,7.9,33z M52.9,2c1.1,0,2,0.9,2,2s-0.9,2-2,2s-2-0.9-2-2S51.8,2,52.9,2z M37.9,20c0.5,0,0.9,0.2,1.3,0.5
		c0,0,0,0,0,0c0,0,0,0,0,0c0.4,0.4,0.7,0.9,0.7,1.5c0,1.1-0.9,2-2,2s-2-0.9-2-2S36.8,20,37.9,20z M22.9,14c1.1,0,2,0.9,2,2
		s-0.9,2-2,2s-2-0.9-2-2S21.8,14,22.9,14z M7.7,27C8.3,27,9,27.3,9,27.7c0,0,0,0.3,0,0.3s0.4,0,0.4,0c0.3,0,0.5,0.6,0.5,1.1
		c0,1.1-0.9,1.9-2,1.9s-2.1-0.9-2.1-2S6.6,27,7.7,27z"/>
</g>
</svg>
