<?xml version="1.0" encoding="utf-8"?>
<!-- Generator: Adobe Illustrator 18.0.0, SVG Export Plug-In . SVG Version: 6.00 Build 0)  -->
<!DOCTYPE svg PUBLIC "-//W3C//DTD SVG 1.1//EN" "http://www.w3.org/Graphics/SVG/1.1/DTD/svg11.dtd">
<svg version="1.1" id="Layer_1" xmlns="http://www.w3.org/2000/svg" xmlns:xlink="http://www.w3.org/1999/xlink" x="0px" y="0px"
	 width="60px" height="60px" viewBox="0 0 60 60" enable-background="new 0 0 60 60" xml:space="preserve">
<g>
	<path fill="#231F20" d="M22.5,3.8c11,0,20.1,7.3,20.1,16.2h2c0-10-9.9-18.2-22.1-18.2C10.4,1.8,0.5,10,0.5,20c0,4.9,2,9.4,5.6,12.6
		l-4.5,8.2c-0.2,0.3-0.2,0.8,0.1,1.1c0.2,0.2,0.5,0.3,0.8,0.3c0.1,0,0.2,0,0.2,0.1l12.5-4.8c1.3,0.4,2.7,0.7,3.7,0.9l0.3-2
		c-1.2-0.2-2.9-0.7-3.7-1c-0.3-0.1-0.5-0.1-0.7,0L4.5,39.3l3.6-6.5c0.3-0.5,0.2-1-0.2-1.3C4.4,28.7,2.5,24.6,2.5,20
		C2.5,11.1,11.5,3.8,22.5,3.8z"/>
	<path fill="#231F20" d="M54.8,51.4c3.1-2.7,4.7-6.2,4.7-10.1c0-8.7-8.3-15.9-18.3-15.9s-18.4,7.3-18.4,15.9
		c0,8.8,8.2,16.1,17.8,16.1c2.5,0,4.8-0.4,7.1-1.4l9.5,3.7c0.1,0.1,0.3,0.1,0.4,0.1c0.3,0,0.5-0.1,0.8-0.4c0.2-0.3,0.3-0.7,0.1-1.1
		L54.8,51.4z M48.2,54.1C48.1,54,47.9,54,47.8,54c-0.1,0-0.3,0-0.4,0.1c-2.2,0.9-4.4,1.4-6.7,1.4c-8.6,0-15.9-6.5-15.9-14.2
		c0-7.6,7.5-13.8,16.4-13.8c9,0,16.4,6.3,16.4,13.9c0,3.5-1.6,6.8-4.6,9.2c-0.4,0.3-0.5,0.8-0.3,1.2l2.8,5.3L48.2,54.1z"/>
</g>
</svg>
