<?xml version="1.0" encoding="utf-8"?>
<!-- Generator: Adobe Illustrator 18.0.0, SVG Export Plug-In . SVG Version: 6.00 Build 0)  -->
<!DOCTYPE svg PUBLIC "-//W3C//DTD SVG 1.1//EN" "http://www.w3.org/Graphics/SVG/1.1/DTD/svg11.dtd">
<svg version="1.1" id="Layer_1" xmlns="http://www.w3.org/2000/svg" xmlns:xlink="http://www.w3.org/1999/xlink" x="0px" y="0px"
	 width="60px" height="60px" viewBox="0 0 60 60" enable-background="new 0 0 60 60" xml:space="preserve">
<g>
	<path fill="#231F20" d="M60,26.9c0-2.7-2.3-4.9-5-4.9H36.5c1-3,3.1-9.5,2.1-13.2c-1.5-5.4-4.7-5.9-5.6-5.9c-2.2,0-3.9,1.9-3.9,4.3
		c0,9.2-9,19.4-15,20.6v-2.9c0-0.6-0.4-0.8-1-0.8H1c-0.6,0-1,0.3-1,0.8v30C0,55.4,0.4,56,1,56h12c0.6,0,1-0.6,1-1.2V51
		c3,0.5,5.2,1.1,7.1,1.6c3.1,0.8,5.6,1.4,9.9,1.4h17c2.7,0,4-1.4,4-4.1c0-0.8-0.2-1.6-0.6-2.2c2.2-0.4,3.6-1.9,3.6-3.9
		c0-1.3-0.3-2.3-0.9-3.2c2.2-0.5,3.9-2.6,3.9-4.9c0-1.2-0.6-2.3-1.5-3.2C58.9,31.8,60,29,60,26.9z M12,28.8v21V54H2V26h10V28.8z
		 M55,31h-3.1c-0.6,0-1,0.4-1,0.9c0,0.6,0.4,1,1,1c2.1,0,4.1,1.5,4.1,3.1S54.5,39,53,39h-3c-0.6,0-1,0.4-1,0.9c0,0.6,0.4,1,1,1
		c3,0,3,2.3,3,3.1c0,1.9-2.3,2.1-3,2.1h-3c-0.6,0-1,0.4-1,0.9s0.4,1,1,1c0.7,0,3,0.2,3,2.1c0,1.5-0.5,2.1-2,2.1H31
		c-4.1,0-6.4-0.7-9.4-1.4c-2-0.5-4.6-1.1-7.6-1.6V29.7c3-0.5,7.1-3.2,10.6-7.3C28.7,17.5,31,12,31,7.1c0-1.3,0.8-2.3,1.9-2.3
		c1.2,0,2.7,1.2,3.7,4.4c1,3.4-1.5,10.7-2.5,13.2c-0.1,0.3-0.1,0.7,0.1,1c0.2,0.3,0.5,0.5,0.8,0.5h20c1.5,0,3,1.5,3,3
		C58,28.6,57.1,31,55,31z"/>
	<circle fill="#231F20" cx="8.6" cy="50" r="1.3"/>
</g>
</svg>
