<?xml version="1.0" encoding="utf-8"?>
<!-- Generator: Adobe Illustrator 18.0.0, SVG Export Plug-In . SVG Version: 6.00 Build 0)  -->
<!DOCTYPE svg PUBLIC "-//W3C//DTD SVG 1.1//EN" "http://www.w3.org/Graphics/SVG/1.1/DTD/svg11.dtd">
<svg version="1.1" id="Layer_1" xmlns="http://www.w3.org/2000/svg" xmlns:xlink="http://www.w3.org/1999/xlink" x="0px" y="0px"
	 width="60px" height="60px" viewBox="0 0 60 60" enable-background="new 0 0 60 60" xml:space="preserve">
<g>
	<path fill="#020202" d="M26.5,0.2h-25c-0.6,0-1,0.4-1,1v25c0,0.6,0.4,1,1,1h25c0.5,0,1-0.5,1-1v-25C27.4,0.6,27,0.2,26.5,0.2z
		 M25.5,25.2h-23v-23h23V25.2z"/>
	<path fill="#020202" d="M26.5,32.5h-25c-0.6,0-1,0.4-1,1v25c0,0.6,0.4,1,1,1h25c0.5,0,1-0.4,1-1v-25C27.4,32.9,27,32.5,26.5,32.5z
		 M25.5,57.5h-23v-23h23V57.5z"/>
	<path fill="#020202" d="M58.8,0.2h-25c-0.6,0-1,0.4-1,1v25c0,0.6,0.4,1,1,1h25c0.6,0,1-0.5,1-1v-25C59.8,0.6,59.4,0.2,58.8,0.2z
		 M57.8,25.2h-23v-23h23V25.2z"/>
	<path fill="#020202" d="M58.8,32.5h-25c-0.6,0-1,0.4-1,1v25c0,0.6,0.4,1,1,1h25c0.6,0,1-0.4,1-1v-25C59.8,32.9,59.4,32.5,58.8,32.5
		z M57.8,57.5h-23v-23h23V57.5z"/>
</g>
</svg>
