<?xml version="1.0" encoding="utf-8"?>
<!-- Generator: Adobe Illustrator 18.0.0, SVG Export Plug-In . SVG Version: 6.00 Build 0)  -->
<!DOCTYPE svg PUBLIC "-//W3C//DTD SVG 1.1//EN" "http://www.w3.org/Graphics/SVG/1.1/DTD/svg11.dtd">
<svg version="1.1" id="Layer_1" xmlns="http://www.w3.org/2000/svg" xmlns:xlink="http://www.w3.org/1999/xlink" x="0px" y="0px"
	 width="60px" height="60px" viewBox="0 0 60 60" enable-background="new 0 0 60 60" xml:space="preserve">
<g>
	<path fill="#010101" d="M47.5,16l4-3.9l1.2,1.1c0.2,0.2,0.4,0.3,0.7,0.3s0.5-0.1,0.7-0.3c0.4-0.4,0.4-1,0-1.4l-3.8-3.7
		c-0.4-0.4-1-0.4-1.4,0c-0.4,0.4-0.4,1,0,1.4l1.2,1.2l-4,4c-4.3-3.8-9.9-6.2-16-6.4v-6h2c0.6,0,1-0.4,1-1s-0.4-1-1-1h-5.9
		c-0.6,0-1,0.4-1,1s0.4,1,1,1h2v6C14.4,8.7,3.4,20.1,3.4,33.9c0,14.2,11.6,25.7,25.7,25.7c14.2,0,25.7-11.6,25.7-25.7
		C54.8,27,52,20.6,47.5,16z M29.1,57.7C16,57.7,5.3,47,5.3,33.9S16,10.2,29.1,10.2s23.8,10.7,23.8,23.8S42.2,57.7,29.1,57.7z"/>
	<path fill="#010101" d="M29.1,42.8c-1,0-1.8,0.8-1.8,1.8c0,1,0.8,1.8,1.8,1.8c1,0,1.8-0.8,1.8-1.8C30.9,43.6,30.1,42.8,29.1,42.8z"
		/>
	<path fill="#010101" d="M29.5,22.9c-3.9,0-6.9,3.1-6.9,6.9c0,0.6,0.4,1,1,1s1-0.4,1-1c0-2.8,2.2-4.9,4.9-4.9s4.9,2.2,4.9,4.9
		c0,2.7-2.5,4.9-5.3,4.9c-0.6,0-1,0.4-1,1V40c0,0.6,0.4,1,1,1c0.6,0,1-0.4,1-1v-3.3c3.5-0.5,6.3-3.5,6.3-6.8
		C36.4,26,33.4,22.9,29.5,22.9z"/>
	<path fill="#010101" d="M15,33.3c0-0.6-0.4-1-1-1H9c-0.6,0-1,0.4-1,1s0.4,1,1,1h5C14.6,34.3,15,33.9,15,33.3z"/>
	<path fill="#010101" d="M14.5,19.2c-0.4-0.4-1-0.4-1.4,0c-0.4,0.4-0.4,1,0,1.4l3.9,3.9c0.2,0.2,0.4,0.3,0.7,0.3
		c0.3,0,0.5-0.1,0.7-0.3c0.4-0.4,0.4-1,0-1.4L14.5,19.2z"/>
	<path fill="#010101" d="M17,44l-3.9,3.9c-0.4,0.4-0.4,1,0,1.4c0.2,0.2,0.4,0.3,0.7,0.3c0.3,0,0.5-0.1,0.7-0.3l3.9-3.9
		c0.4-0.4,0.4-1,0-1.4C18,43.6,17.4,43.6,17,44z"/>
	<path fill="#010101" d="M49.1,32.3h-6.8c-0.6,0-1,0.4-1,1s0.4,1,1,1h6.8c0.6,0,1-0.4,1-1S49.7,32.3,49.1,32.3z"/>
	<path fill="#010101" d="M29.1,50c-0.6,0-1,0.4-1,1v3.4c0,0.6,0.4,1,1,1c0.6,0,1-0.4,1-1V51C30.1,50.4,29.7,50,29.1,50z"/>
	<path fill="#010101" d="M29.1,19.4c0.6,0,1-0.4,1-1v-5.1c0-0.6-0.4-1-1-1c-0.6,0-1,0.4-1,1v5.1C28.1,19,28.5,19.4,29.1,19.4z"/>
	<path fill="#010101" d="M39.3,44c-0.4-0.4-1-0.4-1.4,0c-0.4,0.4-0.4,1,0,1.4l3.9,3.9c0.2,0.2,0.4,0.3,0.7,0.3s0.5-0.1,0.7-0.3
		c0.4-0.4,0.4-1,0-1.4L39.3,44z"/>
	<path fill="#010101" d="M38.6,24.7c0.3,0,0.5-0.1,0.7-0.3l3.9-3.9c0.4-0.4,0.4-1,0-1.4c-0.4-0.4-1-0.4-1.4,0L37.9,23
		c-0.4,0.4-0.4,1,0,1.4C38.1,24.6,38.3,24.7,38.6,24.7z"/>
</g>
</svg>
