<?xml version="1.0" encoding="utf-8"?>
<!-- Generator: Adobe Illustrator 18.0.0, SVG Export Plug-In . SVG Version: 6.00 Build 0)  -->
<!DOCTYPE svg PUBLIC "-//W3C//DTD SVG 1.1//EN" "http://www.w3.org/Graphics/SVG/1.1/DTD/svg11.dtd">
<svg version="1.1" id="Layer_1" xmlns="http://www.w3.org/2000/svg" xmlns:xlink="http://www.w3.org/1999/xlink" x="0px" y="0px"
	 width="263.1px" height="103.6px" viewBox="18.5 46.7 263.1 103.6" enable-background="new 18.5 46.7 263.1 103.6"
	 xml:space="preserve">
<g>
	<g>
		<path fill="#01B2E4" d="M139,120.4c-2,0-3.8-1.8-3.8-4.1s1.8-4.1,3.8-4.1c2.3,0,4.1,1.8,4.1,4.1S141.1,120.4,139,120.4z
			 M141.6,105.3c0,1.3-1,2.3-2.6,2.3c-1.3,0-2.6-1-2.6-2.3c0-2-1-25.1-1-25.4c0-1.8,1.5-3.3,3.6-3.3s3.3,1.5,3.3,3.3
			C142.6,80.2,141.6,103.3,141.6,105.3z"/>
		<path fill="#01B2E4" d="M176.4,120.2c-1.5,0-2.8-1.3-2.8-2.8v-2c-2.3,3.1-6.2,5.1-10.3,5.1c-8,0-13.8-6.2-13.8-16.4
			c0-10,5.6-16.4,13.8-16.4c4.1,0,7.7,2,10.3,5.4V79.1c0-1.5,1.3-2.8,3.1-2.8c1.5,0,2.8,1.3,2.8,2.8v38.2
			C179.3,118.9,178,120.2,176.4,120.2z M173.6,97.6c-1.5-2.6-5.1-4.6-8.7-4.6c-5.9,0-9.5,4.9-9.5,11.3s3.6,11.3,9.5,11.3
			c3.6,0,7.2-2,8.7-4.6V97.6z"/>
		<path fill="#01B2E4" d="M214.4,106.1h-21.8c0.5,5.4,4.4,9.7,10.8,9.7c2.6,0,5.4-1,7.7-2.6c0.5-0.3,0.8-0.3,1.3-0.3
			c1,0,2.3,1,2.3,2.3c0,3.6-8,5.1-12,5.1c-9.2,0-16.1-6.7-16.1-16.4c0-9,6.4-16.4,15.6-16.4c7.4,0,12.8,4.6,14.6,11.8
			c0.3,1,0.5,2.3,0.5,3.6C217.4,104.8,215.9,106.1,214.4,106.1z M202.1,92.5c-6.2,0-9.2,5.1-9.5,9.5h19
			C211.6,97.9,208.7,92.5,202.1,92.5z"/>
		<path fill="#01B2E4" d="M246.9,120.2L246.9,120.2c-1.3,0-2.8-1-2.8-2.8v-1c-2.6,2.8-6.2,4.4-10.3,4.4c-5.1,0-10.8-3.6-10.8-10.3
			c0-6.9,5.6-10.3,10.8-10.3c4.4,0,7.7,1.3,10.3,4.1v-5.1c0-3.8-3.3-6.2-7.7-6.2c-2.8,0-5.4,1-7.7,2.8c-0.5,0.3-1,0.5-1.5,0.5
			c-1.3,0-2.3-1-2.3-2.3c0-0.5,0.3-1,0.5-1.5c3.1-3.1,7.7-4.4,11.8-4.4c6.7,0,12.6,2.8,12.6,10.8v18.5
			C249.7,118.9,248.5,120.2,246.9,120.2z M243.9,107.6c-1.8-2.3-4.9-3.6-8-3.6c-4.1,0-7.2,2.6-7.2,6.4c0,3.6,3.1,6.2,7.2,6.2
			c3.3,0,6.4-1.3,8-3.6V107.6z"/>
		<path fill="#01B2E4" d="M269.2,120.7c-4.4,0-9-1.3-11.8-4.1c-0.5-0.5-0.8-1-0.8-1.5c0-1.3,1.3-2.3,2.6-2.3c0.5,0,1,0.3,1.5,0.5
			c2.3,1.8,5.6,3.1,8.7,3.1c4.4,0,6.7-2,6.7-4.9c0-6.9-19-2.3-19-14.1c0-4.9,4.4-9.2,11.8-9.2c4.4,0,8.5,1.3,10.8,3.8
			c0.5,0.5,0.5,1,0.5,1.5c0,1.3-1,2.3-2.3,2.3c-0.5,0-1-0.3-1.3-0.5c-2-1.5-4.9-2.3-7.7-2.3c-3.8,0-6.4,1.8-6.4,4.4
			c0,6.2,19,2,19,14.1C281.8,116.3,277.4,120.7,269.2,120.7z"/>
	</g>
</g>
<g>
	<g>
		<path fill="#01B2E4" d="M68.9,127.6h-12c-1.9,0-3.5-1.6-3.5-3.5v-2.8c-10.7-3.9-18-14.2-18-25.8C35.4,80.4,47.7,68,62.9,68
			s27.5,12.3,27.5,27.5c0,11.6-7.2,21.9-18,25.8v2.8C72.3,126,70.9,127.6,68.9,127.6z M60.5,120.5h4.9v-1.7c0-1.6,1.2-3,2.6-3.5
			c9-2.3,15.4-10.4,15.4-19.7c0-11.3-9.1-20.4-20.4-20.4s-20.4,9.1-20.4,20.4c0,9.3,6.2,17.4,15.4,19.7c1.6,0.4,2.6,1.7,2.6,3.5
			L60.5,120.5L60.5,120.5z"/>
	</g>
	<g>
		<path fill="#01B2E4" d="M62.8,150.3c-7.4,0-14.2-3.6-18.1-9.8c-1-1.6-0.6-3.8,1-4.9c1.6-1,3.8-0.6,4.9,1c2.8,4.2,7.2,6.7,12.2,6.7
			c4.8,0,9.1-2.3,11.9-6.2c1.2-1.6,3.3-2,4.9-0.9s2,3.3,0.9,4.9C76.5,147,69.9,150.3,62.8,150.3z"/>
	</g>
	<g>
		<path fill="#01B2E4" d="M28,97.7h-6.1c-1.9,0-3.5-1.6-3.5-3.5s1.6-3.5,3.5-3.5h5.9c1.9,0,3.5,1.6,3.5,3.5
			C31.5,96.1,29.9,97.7,28,97.7z"/>
	</g>
	<g>
		<path fill="#01B2E4" d="M36.7,74.4c-0.9,0-1.7-0.3-2.5-1l-6.8-6.8c-1.4-1.4-1.4-3.6,0-4.9c1.4-1.4,3.6-1.4,4.9,0l6.8,6.8
			c1.4,1.4,1.4,3.6,0,4.9C38.4,74.1,37.6,74.4,36.7,74.4z"/>
	</g>
	<g>
		<path fill="#01B2E4" d="M62.9,63.7c-1.9,0-3.5-1.6-3.5-3.5v-10c0-1.9,1.6-3.5,3.5-3.5c1.9,0,3.5,1.6,3.5,3.5v10
			C66.4,62.2,64.8,63.7,62.9,63.7z"/>
	</g>
	<g>
		<path fill="#01B2E4" d="M87.6,76c-0.9,0-1.7-0.3-2.5-1c-1.4-1.4-1.4-3.6,0-4.9l8.3-8.3c1.4-1.4,3.6-1.4,4.9,0
			c1.4,1.4,1.4,3.6,0,4.9L90,75C89.4,75.6,88.6,76,87.6,76z"/>
	</g>
	<g>
		<path fill="#01B2E4" d="M103.8,97.7h-5.9c-1.9,0-3.5-1.6-3.5-3.5s1.6-3.5,3.5-3.5h5.9c1.9,0,3.5,1.6,3.5,3.5
			C107.4,96.1,105.8,97.7,103.8,97.7z"/>
	</g>
</g>
</svg>
