<?xml version="1.0" encoding="utf-8"?>
<!-- Generator: Adobe Illustrator 18.0.0, SVG Export Plug-In . SVG Version: 6.00 Build 0)  -->
<!DOCTYPE svg PUBLIC "-//W3C//DTD SVG 1.1//EN" "http://www.w3.org/Graphics/SVG/1.1/DTD/svg11.dtd">
<svg version="1.1" id="Layer_1" xmlns="http://www.w3.org/2000/svg" xmlns:xlink="http://www.w3.org/1999/xlink" x="0px" y="0px"
	 width="710.7px" height="230px" viewBox="-36.7 -38 710.7 230" enable-background="new -36.7 -38 710.7 230" xml:space="preserve">
<g>
	<g>
		<path fill="#F9E983" d="M75.2,141.5H48.5c-4.2,0-7.7-3.5-7.7-7.7v-6.1C17,119,0.9,96.1,0.9,70.4C0.9,36.6,28.2,9.3,62,9.3
			s61.1,27.3,61.1,61.1c0,25.7-16.1,48.6-39.9,57.3v6.1C82.9,138,79.7,141.5,75.2,141.5z M56.6,125.7h10.9v-3.9
			c0-3.5,2.6-6.8,5.8-7.7c19.9-5.1,34.1-23.2,34.1-43.7C107.4,45.3,87.1,25,62,25S16.7,45.3,16.7,70.4c0,20.6,13.8,38.6,34.1,43.7
			c3.5,1,5.8,3.9,5.8,7.7C56.6,121.9,56.6,125.7,56.6,125.7z"/>
	</g>
	<g>
		<path fill="#F9E983" d="M61.7,192c-16.4,0-31.5-8-40.2-21.9c-2.3-3.5-1.3-8.4,2.3-10.9c3.5-2.3,8.4-1.3,10.9,2.3
			c6.1,9.3,16.1,14.8,27,14.8c10.6,0,20.3-5.1,26.4-13.8c2.6-3.5,7.4-4.5,10.9-1.9c3.5,2.6,4.5,7.4,1.9,10.9
			C92.3,184.6,77.5,192,61.7,192z"/>
	</g>
	<g>
		<path fill="#F9E983" d="M-15.5,75.2H-29c-4.2,0-7.7-3.5-7.7-7.7s3.5-7.7,7.7-7.7h13.2c4.2,0,7.7,3.5,7.7,7.7
			C-7.8,71.7-11.3,75.2-15.5,75.2z"/>
	</g>
	<g>
		<path fill="#F9E983" d="M3.8,23.4c-1.9,0-3.9-0.6-5.5-2.3L-16.8,6.1c-3.2-3.2-3.2-8,0-10.9c3.2-3.2,8-3.2,10.9,0L9.3,10.3
			c3.2,3.2,3.2,8,0,10.9C7.7,22.8,5.7,23.4,3.8,23.4z"/>
	</g>
	<g>
		<path fill="#F9E983" d="M62-0.4c-4.2,0-7.7-3.5-7.7-7.7v-22.2c0-4.2,3.5-7.7,7.7-7.7s7.7,3.5,7.7,7.7v22.2
			C69.7-3.6,66.2-0.4,62-0.4z"/>
	</g>
	<g>
		<path fill="#F9E983" d="M116.7,27c-1.9,0-3.9-0.6-5.5-2.3c-3.2-3.2-3.2-8,0-10.9l18.3-18.3c3.2-3.2,8-3.2,10.9,0
			c3.2,3.2,3.2,8,0,10.9l-18.3,18.3C120.9,26,119,27,116.7,27z"/>
	</g>
	<g>
		<path fill="#F9E983" d="M152.7,75.2h-13.2c-4.2,0-7.7-3.5-7.7-7.7s3.5-7.7,7.7-7.7h13.2c4.2,0,7.7,3.5,7.7,7.7
			C160.8,71.7,157.2,75.2,152.7,75.2z"/>
	</g>
</g>
<text transform="matrix(1 0 0 1 226.0247 133.8623)" fill="#29ABE2" font-family="'ProximaNovaSoft-Regular'" font-size="150">ideas</text>
</svg>
