<?xml version="1.0" encoding="utf-8"?>
<!-- Generator: Adobe Illustrator 18.1.0, SVG Export Plug-In . SVG Version: 6.00 Build 0)  -->
<svg version="1.1" id="Layer_1" xmlns="http://www.w3.org/2000/svg" xmlns:xlink="http://www.w3.org/1999/xlink" x="0px" y="0px"
	 viewBox="0 0 1224 263" enable-background="new 0 0 1224 263" xml:space="preserve">
<path fill="#FFFFFF" d="M226.9,159.8c15.1-9.3,41.7-3.7,45.8-9.7v-5.4c0-12.7-8.2-15.7-17.9-15.7c-8.2,0-15.9,2.8-22.2,7.7l-2.2-0.4
	l-11.2-15.7l0.4-2.2c9.5-7.7,22.8-11.6,35.3-11.6c24.3,0,43.5,9.5,43.5,34.9v51l6.2,21.9l-1.3,1.7l-20.9,2.8l-1.7-1.3l-6.9-17.6
	c0,0-6.9,20-29.9,20c-17.2,0-32.5-12.7-32.5-32.5C211.6,175.1,217.4,165.6,226.9,159.8z M252.7,199.2c10.8,0,20.2-4.5,20.2-4.5
	v-34.2c-5.6,23.9-34.6,7.5-34.6,27.3C238.3,194.5,243.7,199.2,252.7,199.2z"/>
<path fill="#FFFFFF" d="M321.8,206.1l12.3-15.9l2.2-0.2c0,0,11.4,8.2,23,8.2c9,0,17.4-2.4,17.4-12.3c0-6.5-8.8-9.3-18.3-12
	c-15.9-4.7-35.3-11.2-35.3-33.1c0-23.7,21.9-33.8,43.2-33.8c19.6,0,33.3,10.8,33.3,10.8l0.2,2.2l-12.5,15.9l-1.9,0.2
	c0,0-9.7-6.9-18.7-6.9c-10.1,0-17.4,4.3-17.4,11.6s9,10.1,18.9,12.9c15.9,4.5,34.6,10.1,34.6,32.3c0,26.5-20.2,34.4-43,34.4
	c-14,0-27.8-4.7-37.7-12L321.8,206.1z"/>
<path fill="#FFFFFF" d="M426.3,63.7l1.5-1.5l22.8-3l1.5,1.5v88.4h2.4l28.4-37.4l2.2-1.3l30.1-2.6l1.5,1.5l-32.5,38.3l-6,5.8l6,8
	l16.1,27.8c1.7,2.6,5.6,7.3,11.6,7.3c2.8,0,5.2-0.4,5.2-0.4l1.5,1.5l-3.2,19.6l-1.5,1.5c-2.6,0.4-3.2,0.4-4.9,0.4
	c-19.4,0-29.3-14.2-31.8-18.9l-22.6-40.2h-2.4v56.4l-1.5,1.5h-22.8l-1.5-1.5V63.7z"/>
<path fill="#12C3F4" d="M532,202.9l12.7-16.8l2.2-0.2c6.2,4.9,18.9,10.8,30.6,10.8c12.9,0,23.9-5.4,23.9-20
	c0-12.5-12.3-17.2-25.4-22.2c-18.1-6.9-38.9-15.1-38.9-41.1c0-26.9,21.7-43,47.3-43c25.8,0,42,12.7,42,12.7l0.4,2.2l-11.4,17.4
	l-2.2,0.4c0,0-11.2-9-28-9c-14.4,0-21.1,7.7-21.1,18.7c0,11,11.6,15.7,23.9,20.2c18.5,6.7,40.4,15.7,40.4,43.5
	c0,33.6-28,43.9-51,43.9c-24.7,0-45-15.3-45-15.3L532,202.9z"/>
<path fill="#12C3F4" d="M690.7,75.1l1.5-1.5l23.9-2.8l1.5,1.5l51.6,143.9l-1.5,1.5H743l-1.5-1.5l-11-32.9h-51.6l-11,32.9l-1.5,1.5
	h-24.7l-1.5-1.5L690.7,75.1z M723,160.9l-14.4-43.2l-3.9-14.2l-3.9,14.2l-14.4,43.2H723z"/>
<path fill="#12C3F4" d="M789.1,74l1.5-1.5h42.2c26.7,0,53.8,11.2,53.8,44.1c0,37.4-35.9,42-35.9,42l6,7.3l15.3,21.9
	c1.7,2.6,6.2,7.3,13.6,7.3c4.3,0,6.9-0.9,6.9-0.9l1.5,1.5l-3.4,20.7l-1.5,1.5c-1.3,0.2-5.6,0.4-7.5,0.4c-19.8,0-30.3-14.8-32.5-18.3
	l-25-38.5l-2.2-1.3h-6v55.9l-1.5,1.5h-23.7l-1.5-1.5V74z M833.2,137.9c15.1,0,26.7-5.8,26.7-21.3c0-15.5-11.6-21.3-26.7-21.3h-17.4
	v42.6H833.2z"/>
<path fill="#12C3F4" d="M953.2,75.1l1.5-1.5l23.9-2.8l1.5,1.5l51.6,143.9l-1.5,1.5h-24.7l-1.5-1.5l-11-32.9h-51.6l-11,32.9l-1.5,1.5
	h-24.7l-1.5-1.5L953.2,75.1z M985.5,160.9l-14.4-43.2l-3.9-14.2l-3.9,14.2l-14.4,43.2H985.5z"/>
<path fill="#12C3F4" d="M1051.5,75.1l1.5-1.5l23.7-2.8l1.5,1.5v57.7h68V75.1l1.5-1.5l23.7-2.8l1.5,1.5v143.9l-1.5,1.5h-23.7
	l-1.5-1.5v-62.6h-68v62.6l-1.5,1.5H1053l-1.5-1.5V75.1z"/>
<g>
	<g>
		<path fill="#FEFFFF" stroke="#12C3F4" stroke-miterlimit="10" d="M75.3,137.2c-0.4,0-0.8-0.1-1.3-0.2c-1.3-0.5-2.2-1.8-2.2-3.3
			v-22.1h-5.6c-15.6,0-26.9-10.3-26.9-24.4V66.3c0-15,11.7-26.7,26.7-26.7h58.1c15.5,0,29.1,12.5,29.1,26.7v18.6
			c0,14.2-13.6,26.7-29.1,26.7H100L77.9,136C77.3,136.8,76.3,137.2,75.3,137.2z M66,46.5c-11.1,0-19.8,8.7-19.8,19.8v20.9
			c0,10.3,8.2,17.4,20,17.4h9.1c1.9,0,3.5,1.6,3.5,3.5v16.5l17.1-18.9c0.7-0.7,1.6-1.1,2.6-1.1h25.7c11.8,0,22.1-9.2,22.1-19.8V66.3
			c0-10.5-10.3-19.8-22.1-19.8H66z"/>
	</g>
</g>
<g>
	<path fill="#12C3F4" d="M165.9,174.8c-1,0-1.9-0.4-2.6-1.1l-22.2-24.4h-35.7c-1.9,0-3.5-1.6-3.5-3.5v-20.4c0-1.9,1.6-3.5,3.5-3.5
		c1.9,0,3.5,1.6,3.5,3.5v16.9h33.7c1,0,1.9,0.4,2.6,1.1l17.2,18.9v-16.6c0-1.9,1.6-3.5,3.5-3.5h10.5v-39.5h-11.5
		c-1.9,0-3.5-1.6-3.5-3.5c0-1.9,1.6-3.5,3.5-3.5h15c1.9,0,3.5,1.6,3.5,3.5v46.5c0,1.9-1.6,3.5-3.5,3.5h-10.5v22.1
		c0,1.4-0.9,2.7-2.2,3.3C166.7,174.7,166.3,174.8,165.9,174.8z"/>
</g>
</svg>
