<?xml version="1.0" encoding="utf-8"?>
<!-- Generator: Adobe Illustrator 18.1.0, SVG Export Plug-In . SVG Version: 6.00 Build 0)  -->
<svg version="1.1" id="Layer_1" xmlns="http://www.w3.org/2000/svg" xmlns:xlink="http://www.w3.org/1999/xlink" x="0px" y="0px"
	 viewBox="0 0 1088.9 187.5" enable-background="new 0 0 1088.9 187.5" xml:space="preserve">
<g>
	<g>
		<g>
			<path fill="#FFFFFF" d="M158.9,99.8c-0.1-0.1-0.3-0.2-0.4-0.2c-1.5,0.5-2.9,0.7-4.3,0.7c-4.5,0-9.1-2.4-14.1-7.3l-21-21
				c-3.5-3.5-8.1-5.4-13-5.4c-4.9,0-9.5,1.9-13,5.4c-7.2,7.2-7.2,18.8,0,26l33.7,33.7c0.1,0.1,0.2,0.1,0.3,0.1c0.1,0,0.2,0,0.3-0.1
				l31.5-31.5C158.9,100.2,159,100,158.9,99.8z"/>
			<path fill="#FFFFFF" d="M161.1,72c-3.5-3.5-8.1-5.4-13-5.4c-4.9,0-9.5,1.9-13,5.4l-4,4c-0.1,0.1-0.1,0.4,0,0.5l12.7,12.7
				c3.9,3.9,7.4,5.8,10.4,5.8c5.6,0,9.7-2.4,12-7.1C168.8,82.7,165.1,76.1,161.1,72z"/>
		</g>
		<g>
			<path fill="#FFFFFF" d="M127.4,164.9c-39.1,0-70.9-31.8-70.9-70.9s31.8-70.9,70.9-70.9s70.9,31.8,70.9,70.9
				S166.5,164.9,127.4,164.9z M127.4,32.3c-34,0-61.7,27.7-61.7,61.7s27.7,61.7,61.7,61.7S189.1,128,189.1,94S161.4,32.3,127.4,32.3
				z"/>
		</g>
	</g>
	<g>
		<g>
			<path fill="#FFFFFF" d="M1038.7,137.7h-1.2v4.3c0,0.3-0.3,0.6-0.6,0.6c-0.3,0-0.6-0.3-0.6-0.6v-4.3h-1.2c-0.3,0-0.6-0.3-0.6-0.6
				c0-0.3,0.3-0.5,0.6-0.5h3.8c0.3,0,0.5,0.3,0.5,0.6C1039.2,137.5,1039,137.7,1038.7,137.7z"/>
			<path fill="#FFFFFF" d="M1045.8,142.6c-0.3,0-0.6-0.3-0.6-0.6v-3.6l-1.6,4c-0.1,0.1-0.2,0.2-0.4,0.2c-0.2,0-0.3-0.1-0.3-0.2
				l-1.6-4v3.6c0,0.3-0.3,0.6-0.6,0.6c-0.3,0-0.6-0.3-0.6-0.6v-4.7c0-0.4,0.3-0.7,0.7-0.7c0.6-0.1,1.1,0.1,1.3,0.6l1.2,3l1.2-3
				c0.1-0.3,0.5-0.6,0.9-0.6c0.6-0.1,1.2,0.1,1.2,0.7v4.7C1046.5,142.4,1046.2,142.6,1045.8,142.6z"/>
		</g>
		<g>
			<g>
				<path fill="#FFFFFF" d="M909.8,55.4c6.1-1.7,10.7-0.9,13.7,1.4c3.1,2.4,4.6,6.6,4.7,12.1c0.8,30.4-35.6,71.5-70.5,71.2
					c-12.1-0.2-25.8-7.5-27.2-31.1c-1.8-33,49-70.4,78.5-74.5c7.2-1.1,14.8,9.8,14.8,12.2c0,3.2-5.2,4.6-7.5,5.3
					c-2.4,0.9-4.6,2.1-6.7,3.4L909.8,55.4z M865,89.9c-2,0-2-2.9-2.1-4.3c-8.6,8.6-16.9,20.8-16.9,33.3c0,5.3,2.3,9.9,8.1,9.9
					c8.6,0,21.8-6.4,28.2-11.9c20.5-17.4,32.1-36,32.5-47.2c0.2-3.7-2-7.5-6-7.5c-13.4,0-31.9,12.7-39.1,23.5
					C868.9,87,866.9,89.9,865,89.9z"/>
				<path fill="#FFFFFF" d="M991.2,109l1.2,6.7c-8.1,7.2-23.8,26-35,26c-5.8,0-8.6-4.9-8.6-10.1c0-9.2,8.2-19.2,13.1-26.3l-0.3-0.3
					c-8.9,6.6-16.6,14.5-23.5,23.4c-2.3,2.9-7.9,10.4-12.1,10.4c-6.7,0-8.4-9.6-8.6-14.8c-0.5-10.5,9.2-26,18-33.4
					c2-1.7,3.4-1.8,6-1.8c9.2,0.3,8.4,2.4,8.4,3.4c0,6-19.2,21.4-19.2,25c0,0.9,0.8,1.7,1.7,1.7c1.1,0,2.4-1.4,3.1-2.1
					c12.2-15.6,40.3-34.4,44.7-34.4c0.6,0,1.5,0.8,2.4,2.9c0.9,2.3,1.8,5,2.3,8.2c0,6-18.8,17.6-18.8,28.1c0,1.4,1.2,2.8,2.8,2.8
					c3.7,0,10.4-5.3,13.1-7.6L991.2,109z"/>
				<path fill="#FFFFFF" d="M1046.6,116.5c-9.3,10.8-26.1,25.2-41.2,25.2c-11.1,0-16.3-9.9-16.6-20c-0.6-20,21.5-40.5,41.4-40.3
					c4.9,0,11,1.2,11,7.3c0,7.5-7.5,18.8-36.8,28.4l-0.3,3.4c-0.5,5.8,4.6,7.8,9.5,7.8c10.8,0,23.7-11.1,31.8-17.6L1046.6,116.5z
					 M1027.7,91.9c0-1.1-0.8-2-1.8-1.7c-7.6,2-16.5,9.3-20.6,19.4C1018.7,105,1027.8,94.5,1027.7,91.9z"/>
			</g>
			<g>
				<path fill="#FFFFFF" d="M329.4,141.7c-5.7,0-10.3-4.7-10.3-10.3V72.8l-26.2,65.1c-0.9,2.2-3.1,3.8-5.8,3.8
					c-2.5,0-4.7-1.6-5.5-3.8l-26.2-65.1v58.7c0,5.5-4.7,10.2-10.5,10.2c-5.5,0-10.2-4.7-10.2-10.2V55.3c0-6.4,5.2-11.7,11.7-11.7
					c9.5-1,17.6,1,21.1,9.5l19.8,49.3L307,53.1c2.3-5.7,7.7-9.5,14.1-9.5c9.3-1.5,18.8,2,18.8,11.7v76.1
					C339.9,137,335.3,141.7,329.4,141.7z"/>
				<path fill="#FFFFFF" d="M416.5,81.9l-28.4,70.4c-5,12.2-13.8,17-24.2,17c-6.4,0-11.4-3.2-11.4-8.3c0-4.4,3.5-8.2,8.7-8.2
					c0.7,0,1.6,0,2.3-0.1c3.1-0.6,5.7-2,7-5l2.6-6l-24-60c-0.4-1-0.6-2-0.6-3.1c0-4.5,3.6-9.2,9.3-9.2c3.6,0,7.1,2.3,8.6,6.1
					l16.3,43.7l16.3-43.7c1.3-3.6,5-6.1,8.9-6.1c5.5,0,9,4.5,9,9C417.1,79.8,416.9,80.9,416.5,81.9z"/>
				<path fill="#FFFFFF" d="M502.8,141.7c-5.7,0-10.3-4.7-10.3-10.3V100h-45.9v31.5c0,5.5-4.7,10.2-10.5,10.2
					c-5.5,0-10.2-4.7-10.2-10.2V52.9c0-5.5,4.7-10.2,10.5-10.2c5.5,0,10.2,4.7,10.2,10.2v28.9h45.9V52.9c0-5.5,4.7-10.2,10.6-10.2
					c5.5,0,10.2,4.7,10.2,10.2v78.4C513.3,137,508.6,141.7,502.8,141.7z"/>
				<path fill="#FFFFFF" d="M586.2,111.5h-43.4c1.2,8.9,8.3,16.3,20.3,16.3c3.9,0,9.3-1.2,13.7-3.5c1.2-0.6,2.5-0.9,3.6-0.9
					c3.9,0,7.9,3.1,7.9,7.4c0,8.3-17.9,11.7-27.3,11.7c-21.4,0-37.6-14.4-37.6-37c0-20.4,15-36.9,36.4-36.9c15.9,0,28,9.2,32.9,23.8
					c1,3.2,2,7.1,2,10.6C594.8,107.6,591,111.5,586.2,111.5z M559.8,83.4c-11.5,0-16.5,8.6-17.3,15.6h34.7
					C576.7,92.3,572.1,83.4,559.8,83.4z"/>
				<path fill="#FFFFFF" d="M656.2,141.7h-1.5c-1.5,0-8-1.2-8-8.2c-4.8,5.7-13.1,9-22.3,9c-11.2,0-24.5-7.6-24.5-23.3
					c0-16.5,13.3-22.7,24.5-22.7c9.3,0,17.6,3.1,22.3,8.6v-9.5c0-7.1-6.1-11.8-15.4-11.8c-5.5,0-10.9,1.3-15.7,4.5
					c-1,0.6-2.2,1-3.3,1c-3.4,0-7-2.8-7-7.1c0-1.3,0.4-2.6,1-3.6c4.4-7,20.1-9.9,28.3-9.9c16,0,30.8,6.4,30.8,26.7v37.2
					C665.2,137.6,661.1,141.7,656.2,141.7z M646.7,115.2c-3.1-4.1-8.9-6.1-14.9-6.1c-7.3,0-13.3,3.8-13.3,10.6
					c0,6.6,6,10.3,13.3,10.3c6,0,11.8-2,14.9-6.1V115.2z"/>
				<path fill="#FFFFFF" d="M684.7,141.7c-5.1,0-9.2-4.1-9.2-9.2V51.8c0-5,4.1-9,9.5-9c5,0,9,4.1,9,9v80.7
					C694,137.6,689.9,141.7,684.7,141.7z"/>
				<path fill="#FFFFFF" d="M733.6,142.6c-13,0-20-6.7-20-19.2V86.6h-4.5c-4.4,0-8-3.6-8-8.3c0-4.2,3.6-7.9,8-7.9h4.5V59.5
					c0-5.1,4.1-9.2,9.5-9.2c5.1,0,9.2,4.1,9.2,9.2v10.9h7.3c4.2,0,7.9,3.6,7.9,8.2c0,4.4-3.6,8-7.9,8h-7.3v31.8
					c0,5.5,3.5,7.7,6.4,7.7c0.4,0,1.2,0,1.6,0c5.2,0,8.2,3.5,8.2,8C748.4,138.8,745.7,142.6,733.6,142.6z"/>
				<path fill="#FFFFFF" d="M812,141.7c-5.1,0-9.2-4.1-9.2-9.2V98c0-9.8-5.1-12.8-13.1-12.8c-7.1,0-12.8,4.1-16,8.3v39.1
					c0,5.1-4.1,9.2-9.3,9.2c-5.1,0-9.2-4.1-9.2-9.2V51.8c0-5,4.1-9,9.5-9c5,0,9,4.1,9,9v27.8c4.5-5.4,13.3-10.9,24.8-10.9
					c15.4,0,22.9,8.4,22.9,22.1v41.7C821.3,137.6,817.3,141.7,812,141.7z"/>
			</g>
		</g>
	</g>
</g>
</svg>
