<?xml version="1.0" encoding="utf-8"?>
<!-- Generator: Adobe Illustrator 18.1.0, SVG Export Plug-In . SVG Version: 6.00 Build 0)  -->
<svg version="1.1" id="Layer_1" xmlns="http://www.w3.org/2000/svg" xmlns:xlink="http://www.w3.org/1999/xlink" x="0px" y="0px"
	 viewBox="0 0 262.5 243" enable-background="new 0 0 262.5 243" xml:space="preserve">
<g>
	<g>
		<g>
			<g>
				<path fill="#FFFFFF" d="M197.1,170.3L197.1,170.3C197.1,170.3,197.1,170.2,197.1,170.3c-2.8-2.4-45.3-26.8-55-32.7
					c-2.2-1.4-4.8-2.2-7.6-2.2c-2.8,0-5.4,0.9-7.6,2.2c-9.7,5.9-52.3,30.3-55,32.6c-0.1,0-0.1,0.1-0.1,0.1h0
					c-6.6,5.6-10.7,14-10.7,23.3c0,17,13.8,30.8,30.8,30.8s30.8-13.8,30.8-30.8v-16.2c0-6.4,5.4-11.7,11.8-11.7
					c6.4,0,11.8,5.2,11.8,11.7v16.2c0,17,13.8,30.8,30.8,30.8c17,0,30.8-13.8,30.8-30.8C207.8,184.3,203.7,175.9,197.1,170.3z"/>
			</g>
			<g>
				<path fill="#FFFFFF" d="M122.6,42.3c0-0.1,0-0.1,0-0.1L122.6,42.3c-1.6-8.6-6.7-16.4-14.7-21.2c-14.7-8.6-33.5-3.7-42.1,11
					c-8.6,14.7-3.7,33.5,11,42.1l13.9,8.2c5.6,3.3,7.4,10.5,4.1,16.1c-3.3,5.6-10.5,7.5-16,4.3l-13.9-8.2
					c-14.7-8.6-33.5-3.7-42.1,11c-8.6,14.7-3.7,33.5,11,42.1c8.1,4.7,17.4,5.3,25.6,2.5l0,0c0,0,0,0,0.1-0.1
					c3.4-1.2,45.9-25.5,55.9-30.9c2.3-1.2,4.3-3,5.8-5.5c1.4-2.4,2-5.1,1.9-7.7C122.8,94.9,123.3,45.8,122.6,42.3z"/>
				<path fill="#FFFFFF" d="M146.2,42.3c0-0.1,0-0.1,0-0.1L146.2,42.3c1.6-8.6,6.7-16.4,14.7-21.2c14.7-8.6,33.5-3.7,42.1,11
					c8.6,14.7,3.7,33.5-11,42.1l-13.9,8.2c-5.6,3.3-7.4,10.5-4.1,16.1c3.3,5.6,10.5,7.5,16,4.3l13.9-8.2c14.7-8.6,33.5-3.7,42.1,11
					c8.6,14.7,3.7,33.5-11,42.1c-8.1,4.7-17.4,5.3-25.6,2.5l0,0c0,0,0,0-0.1-0.1c-3.4-1.2-45.9-25.5-55.9-30.9
					c-2.3-1.2-4.3-3-5.8-5.5c-1.4-2.4-2-5.1-1.9-7.7C146.1,94.9,145.6,45.8,146.2,42.3z"/>
			</g>
		</g>
	</g>
	<path fill="#FFFFFF" d="M232.5,26.6v-7.8h-3.1l-0.1-0.2v-1.4l0.1-0.1h8.3l0.1,0.1l-0.4,1.4l-0.2,0.2h-2.9v7.8l-0.1,0.1h-1.6
		L232.5,26.6z M238.9,26.6v-9.3l0.1-0.1l1.4-0.2l0.2,0.1l3.8,6.7l3.7-6.6l0.2-0.1l1.5-0.2l0.2,0.1v9.5l-0.1,0.1h-1.6l-0.1-0.1v-5.8
		l-2.8,5l-0.2,0.1h-1.3l-0.2-0.1l-2.8-5.1v5.9l-0.1,0.1h-1.6L238.9,26.6z"/>
</g>
</svg>
