<?xml version="1.0" encoding="utf-8"?>
<!-- Generator: Adobe Illustrator 18.1.0, SVG Export Plug-In . SVG Version: 6.00 Build 0)  -->
<svg version="1.1" id="Layer_1" xmlns="http://www.w3.org/2000/svg" xmlns:xlink="http://www.w3.org/1999/xlink" x="0px" y="0px"
	 viewBox="0 0 644.3 195.1" enable-background="new 0 0 644.3 195.1" xml:space="preserve">
<g>
	<g>
		<g>
			<g>
				<g>
					<g>
						<path fill="#0277BD" d="M138.3,66.5c-4.7-1.8-8.7-3.4-8.7-7.8c0-4.6,2.9-7.2,7.9-7.2c3.3,0,6.4,0.9,8.5,2.5l0.2,0.2l1.1-0.1
							l3-4.6l-0.1-0.9l-0.1-0.1c-0.7-0.7-5.4-3.8-12.8-3.8c-8.7,0-15,6-15,14.4c0,8.9,6.6,11.5,12.4,13.8c4.9,1.9,9.1,3.6,9.1,8.5
							c0,6.7-5.6,7.7-8.9,7.7c-3.2,0-7.6-1.4-9.5-3l-0.2-0.2l-1.2,0.1l-3.3,4.5l0.3,1l0.2,0.1c3.7,2.9,9.7,4.5,13.5,4.5
							c8,0,16.4-3.9,16.4-14.7C151.2,71.6,144.4,68.9,138.3,66.5z"/>
						<path fill="#0277BD" d="M179,44.8l-6.4,0.9l-0.7,0.6l-16.8,47.6l-0.1,0.3l0.5,0.9h6.4l0.6-0.6l3.8-11.3h19.2l3.9,11.3l0.7,0.6
							h6.3l0.5-0.9l-17.2-48.8L179,44.8z M176,54.3l0.2,0.7l7.2,21.4h-14.7l7.2-21.4L176,54.3z"/>
						<path fill="#0277BD" d="M235.9,88.3c-0.2,0-0.3,0-0.5,0.1c-0.1,0-0.2,0-0.3,0c-2.6,0-4.3-1.6-5.3-2.8l-8.5-10.2l-0.7-0.7
							c3.5-0.6,13.3-3.1,13.3-14.5c0-6.9-3.4-10.5-6.2-12.3c-2.8-1.7-6.4-2.6-10.9-2.6h-13l-0.7,0.7v48.3l0.7,0.7h5.8l0.7-0.7V75
							h1.7l0.3,0.1L223.4,89l0.1,0.1c1.3,1.7,4.8,6.2,10,6.2c0.5,0,1.1-0.1,1.6-0.2l0.2,0l0.7-0.6l0.9-5.4l-0.6-0.8H235.9z
							 M210.3,52h6.4c3,0,10,0.8,10,8.2c0,7.1-6.2,8.1-10,8.1h-6.4V52z"/>
						<path fill="#0277BD" d="M264.8,44.8l-6.4,0.9l-0.7,0.6l-16.9,47.9l0.6,0.9h6.4l0.6-0.6l3.8-11.3h19.2l3.9,11.3l0.7,0.6h6.3
							l0.5-0.9l-17.2-48.8L264.8,44.8z M261.7,54.3l0.2,0.7l7.2,21.4h-14.7l7.2-21.4L261.7,54.3z"/>
						<polygon fill="#0277BD" points="320.2,45.6 319.5,46.3 319.5,65.5 295.1,65.5 295.1,45.4 294.3,44.8 288.5,45.6 287.9,46.3 
							287.9,94.3 288.6,95 294.4,95 295.1,94.3 295.1,72.4 319.5,72.4 319.5,94.3 320.2,95 326,95 326.7,94.3 326.7,45.4 326,44.8 
													"/>
					</g>
					<path fill="#0277BD" d="M384.4,82.1l-1,0.3l-0.1,0.2c-1.9,4.2-5.9,6.4-11.6,6.4c-7.7,0-12.1-4.3-12.1-11.9V63.5
						c0-7.5,4.5-12,12.1-12c4.9,0,8.9,2.3,10.7,6.2l0.1,0.2l1,0.3l5.2-2.2l0.4-0.9l-0.1-0.2c-2.7-6.4-9.1-10.3-17.4-10.3
						c-12.2,0-19.4,6.9-19.4,18.4v14.7c0,11.4,7.3,18.2,19.4,18.2c9.3,0,15.7-3.8,18.1-10.8l0.1-0.2l-0.4-0.8L384.4,82.1z"/>
					<path fill="#0277BD" d="M416.3,44.8l-6.4,0.9l-0.7,0.6l-16.9,47.9l0.5,0.9h6.4l0.6-0.6l3.8-11.3h19.2l3.9,11.3l0.7,0.6h6.3
						l0.5-0.9l-17.2-48.8L416.3,44.8z M413.3,54.3l0.2,0.7l7.2,21.4h-14.8l7.2-21.4L413.3,54.3z"/>
					<polygon fill="#0277BD" points="470.9,45.6 470.3,46.3 470.3,81.9 469.5,80.5 446.2,45.4 446.1,45.3 445.3,44.8 439.5,45.6 
						438.9,46.3 438.9,94.3 439.6,95 445.4,95 446.2,94.3 446.2,57.5 446.9,59 470.4,94.5 471.3,95 476.8,95 477.5,94.3 477.5,45.4 
						476.7,44.8 					"/>
					<polygon fill="#0277BD" points="519.4,45.6 518.8,46.3 518.8,81.9 518,80.5 494.7,45.4 494.6,45.3 493.8,44.8 488.1,45.6 
						487.4,46.3 487.4,94.3 488.1,95 493.9,95 494.6,94.3 494.6,57.5 495.4,59 518.9,94.5 519.8,95 525.3,95 526,94.3 526,45.4 
						525.2,44.8 					"/>
					<path fill="#0277BD" d="M553.3,44.5c-12.2,0-19.5,6.9-19.5,18.4v14.7c0,11.4,7.3,18.2,19.5,18.2c12.2,0,19.5-6.8,19.5-18.2V63
						C572.8,51.4,565.5,44.5,553.3,44.5z M541.1,63.5c0-7.5,4.5-12,12.1-12c7.6,0,12.2,4.5,12.2,12V77c0,7.6-4.4,11.9-12.2,11.9
						c-7.7,0-12.1-4.3-12.1-11.9V63.5z"/>
					<polygon fill="#0277BD" points="618,44.8 612.2,45.6 611.5,46.3 611.5,81.9 610.8,80.5 587.4,45.4 587.4,45.3 586.6,44.8 
						580.8,45.6 580.2,46.3 580.2,94.3 580.9,95 586.7,95 587.4,94.3 587.4,57.5 588.2,59 611.7,94.5 612.6,95 618.1,95 618.8,94.3 
						618.8,45.4 					"/>
				</g>
			</g>
			<g>
				<path fill="#0277BD" d="M61.3,38.8c-0.9,1-1.9,1.7-6.8,4.5c-19,10.8-37.9,20.4-39.5,32.4c-0.1,0.7-0.2,1.6-0.2,2.3
					c0-2.7-0.1-6.2-0.1-8.9c0-1,0-2.7,0.8-4.7C21.8,48.3,54,38.5,60.4,37.7c0.2,0,1.2-0.2,1.4,0C62,38,61.5,38.5,61.3,38.8z"/>
				<path fill="#0277BD" d="M57.1,25.9c-0.9,0.8-2.3,1.7-6.1,4C33.5,40.2,15,50.3,14.8,62.9l0-8.7c0-1,0.1-2.3,0.4-3.4
					C20,34.7,48.3,25.6,56,24.4c0.4-0.1,1.7-0.3,2,0C58.2,24.7,57.6,25.5,57.1,25.9z"/>
				<path fill="#0277BD" d="M51.9,15.7c-1,0.4-1.5,0.6-6.5,2.9c-19.4,8.8-30,18.7-30.6,29.6l0-9v-0.2c0-17,26.7-24.6,37.3-26
					c0.5-0.1,1.7-0.3,2.4-0.1C55.4,13.3,54.7,14.5,51.9,15.7z"/>
			</g>
			<g>
				<path fill="#0277BD" d="M14.8,70.9c0,0,0,5.1,0,6c0,1,0.1,2,0.1,2c2.5,15.8,27.3,24,28.1,22.3c0.2-0.5-1.1-1.5-8.9-7.2
					c-13.5-9.8-19-17-19.3-25"/>
				<path fill="#0277BD" d="M14.8,54.1l0,8.9c0.1,1,0.1,2.3,0.4,3.2C20.1,82,45.9,89.5,46.6,88.1c0.3-0.7-1.2-1.7-9.3-7.1
					C21.9,70.7,15.1,62.7,14.8,54.1"/>
				<path fill="#0277BD" d="M14.8,39.4l0,8.9c0,0.6,0,1.3,0.2,2C18.9,68,49.5,77,50.4,75.1c0.3-0.6-1.1-1.5-4.3-3.7
					c-3.8-2.7-8-4.8-11.9-7.5C20.9,54.8,15.3,47.7,14.8,39.4"/>
			</g>
			<path fill="#0277BD" d="M93.8,91.3c0,0.4-0.1,0.7-0.1,0.9c-0.9,3.1-5.7,5.9-10.6,7.4c-4.3,1.3-8.9,1.3-9,0.2
				c-0.1-1.2,4-1.7,9.1-4.8c6.1-3.8,10.7-8.5,10.7-11.4 M93.8,69c0,0,0,7.7,0,8.3c0,0.5-0.1,0.8-0.2,1c-2.9,7.5-20.6,11.1-21.5,9.5
				c-0.4-0.7,1.2-1.6,6.3-4.5C87.5,78,93.5,74.1,93.8,69 M93.8,54.5l0,8.4c0,0,0,0.1,0,0.4c-1.4,8.4-24.6,13-25.4,11.4
				c-0.3-0.6,0.8-1.3,6.8-4.6C87.4,63.6,93.2,59.9,93.8,54.5"/>
			<path fill="#0277BD" d="M33.9,49.8c3.7,4.7,19.8,13.8,27,17.9C80,78.4,84.6,80.9,89.2,84.8c3,2.7,4.6,4.2,4.5,6.6l0-7.9
				c0-0.7-0.1-1.3-0.3-1.8c-4.9-11.6-50-29.8-58.5-32.9c-0.4-0.1-1.4-0.5-1.6-0.3C33.1,48.7,33.7,49.5,33.9,49.8z M37.2,37.4
				c3.4,3.7,15.5,10.9,27.3,17.6c12.6,7.1,21.8,12.3,26.4,16.8c2.3,2.4,2.7,3.4,2.9,5.4c0,0,0-5.8,0-8.3l0-0.3
				C92,57,47,39.5,38.2,36.4c-0.5-0.2-1.4-0.6-1.7-0.4C36.3,36.3,37,37.2,37.2,37.4z M40.8,25.2c4,4,18.2,12.1,27.1,17.2
				C77,47.6,88.3,54,92.1,58.9c1.1,1.5,1.5,2.2,1.7,4.1c0,0,0-7.5,0-8.4c0-0.7-0.1-1.2-0.1-1.2C90.2,41.9,50.3,27,41.8,24.1
				c-0.3-0.1-1.6-0.6-1.8-0.4C39.5,24,40.6,25,40.8,25.2z"/>
		</g>
	</g>
	<g>
		<path fill="#0277BD" d="M121.8,137.8l0.2-0.2h13.6l0.2,0.2v2.8l-0.2,0.2h-10.4v8.4h9.8l0.2,0.2l-0.7,2.8l-0.2,0.2h-9v12.1
			l-0.2,0.2h-3l-0.2-0.2V137.8z"/>
		<path fill="#0277BD" d="M140.3,140.1v-3.3l0.2-0.2h3.3l0.2,0.2v3.3l-0.2,0.2h-3.3L140.3,140.1z M140.5,145.3l0.2-0.2l2.8-0.4
			l0.2,0.2v19.7l-0.2,0.2h-2.8l-0.2-0.2V145.3z"/>
		<path fill="#0277BD" d="M152.7,158.9c0,0-4.3-1.2-4.3-7c0-4.7,2.9-7.3,7.6-7.3h4l4.4-0.9l0.2,0.2l0.4,2.2l-0.2,0.3l-2.7,0.8
			c1.3,0.8,2,2.9,2,4.9c0,4.4-2.9,7.4-7.7,7.4c-1.4,0-2.6-0.2-2.6-0.2s-0.2,0.6-0.2,1.2c0,1.6,0.9,2.6,2.4,2.6h2.5
			c3.9,0,5.9,2.3,5.9,5.3c0,3.8-3.8,5.6-7.6,5.6c-3.9,0-7.2-1.2-8.4-3.9l0.1-0.3l2.4-1.1l0.3,0.1c0,0,0.9,2.3,5.6,2.3
			c2.9,0,4.4-1.4,4.4-2.9c0-1.2-0.9-2.3-2.7-2.3h-2.5c-3.3,0-5.1-1.8-5.1-3.7C150.9,160.8,151.6,159.6,152.7,158.9z M160.9,152
			c0-3.2-1.6-4.7-4.7-4.7c-2.7,0-4.6,1.6-4.6,4.7c0,3.1,1.6,4.7,4.6,4.7C159.3,156.6,160.9,155.1,160.9,152z"/>
		<path fill="#0277BD" d="M169.4,136.1l0.2-0.2l2.8-0.4l0.2,0.2v10.1l-0.2,1.8c0.3-0.7,1.7-3.1,5.8-3.1c3.5,0,6.2,2.4,6.2,7v13.2
			l-0.2,0.2h-2.8l-0.2-0.2V152c0-3.5-2-4.7-4.3-4.7c-0.9,0-3.5,0.7-4.2,0.9v16.3l-0.2,0.2h-2.8l-0.2-0.2V136.1z"/>
		<path fill="#0277BD" d="M190.9,147.7h-2.2l-0.2-0.2V145l0.2-0.2h2.3l0.4-4.1l0.2-0.2l2.3-0.3l0.2,0.2v4.5h6.7l0.2,0.2l-0.8,2.5
			l-0.3,0.2h-5.8v9.7c0,2.7,1.3,4.8,3.5,4.8c1.5,0,3-1.2,3-1.2l0.3,0l1.2,2.3l-0.1,0.3c-1.3,0.9-2.9,1.6-4.7,1.6
			c-3.7,0-6.5-2.5-6.5-7.5V147.7z"/>
		<path fill="#0277BD" d="M205.3,140.1v-3.3l0.2-0.2h3.3l0.2,0.2v3.3l-0.2,0.2h-3.3L205.3,140.1z M205.6,145.3l0.2-0.2l2.8-0.4
			l0.2,0.2v19.7l-0.2,0.2h-2.8l-0.2-0.2V145.3z"/>
		<path fill="#0277BD" d="M215,149l-1-3.8l0.2-0.2l2.5-0.4l0.2,0.2l1.1,2.8c0.2-0.5,1.3-3.3,5.6-3.3c3.5,0,6.4,2.4,6.4,7v13.2
			l-0.2,0.2h-2.8l-0.2-0.2V152c0-3.5-2.2-4.7-4.5-4.7c-0.9,0-3.3,0.7-4.1,0.9v16.3l-0.2,0.2h-2.8l-0.2-0.2V149z"/>
		<path fill="#0277BD" d="M238.9,158.9c0,0-4.3-1.2-4.3-7c0-4.7,2.9-7.3,7.6-7.3h4l4.4-0.9l0.2,0.2l0.4,2.2l-0.2,0.3l-2.7,0.8
			c1.3,0.8,2,2.9,2,4.9c0,4.4-2.9,7.4-7.7,7.4c-1.4,0-2.6-0.2-2.6-0.2s-0.2,0.6-0.2,1.2c0,1.6,0.9,2.6,2.4,2.6h2.5
			c3.9,0,5.9,2.3,5.9,5.3c0,3.8-3.8,5.6-7.6,5.6c-3.9,0-7.2-1.2-8.4-3.9l0.1-0.3l2.4-1.1l0.3,0.1c0,0,0.9,2.3,5.6,2.3
			c2.9,0,4.4-1.4,4.4-2.9c0-1.2-0.9-2.3-2.7-2.3h-2.5c-3.3,0-5.1-1.8-5.1-3.7C237.1,160.8,237.8,159.6,238.9,158.9z M247.1,152
			c0-3.2-1.6-4.7-4.7-4.7c-2.7,0-4.6,1.6-4.6,4.7c0,3.1,1.6,4.7,4.6,4.7C245.5,156.6,247.1,155.1,247.1,152z"/>
		<path fill="#0277BD" d="M265.4,147.1c0-6.5,4.2-10,10.5-10c4.4,0,8,2,9.4,5.5l-0.1,0.2l-2.7,1.1l-0.3-0.1
			c-1.1-2.2-3.4-3.6-6.3-3.6c-4.1,0-7.1,2.4-7.1,7v7.6c0,4.8,3,7,7.1,7c3.3,0,5.7-1.3,6.8-3.7l0.3-0.1l2.6,1l0.1,0.2
			c-1.3,3.8-4.9,5.8-9.8,5.8c-6.3,0-10.5-3.4-10.5-9.9V147.1z"/>
		<path fill="#0277BD" d="M291.3,154.9c1.5-1.2,3.7-1.5,6.3-1.5h1.4c0.9,0,1.4-0.2,1.8-0.4v-1.9c0-3.1-1.9-3.8-4.1-3.8
			c-1.6,0-3,0.4-4,1.2l-0.3,0l-1.4-2l0.1-0.3c1.4-1.1,3.5-1.7,5.6-1.7c4.1,0,7.3,1.6,7.3,6.1v10.3l1,3.5l-0.2,0.2l-2.5,0.4l-0.2-0.2
			l-1.2-2.9c0,0-1,3.3-5.4,3.3c-2.9,0-6.1-1.5-6.1-5.9C289.4,157.3,290.2,155.8,291.3,154.9z M296,162.3c2,0,4.7-1.2,4.7-1.2v-6.8
			c-0.5,1.6-2.2,2-3.5,2h-1c-1.4,0-3.5,0.5-3.5,3C292.8,161.1,294,162.3,296,162.3z"/>
		<path fill="#0277BD" d="M310,149l-1-3.8l0.2-0.2l2.5-0.4l0.2,0.2l1.1,2.8c0.2-0.5,1.3-3.3,5.6-3.3c3.5,0,6.4,2.4,6.4,7v13.2
			l-0.2,0.2H322l-0.2-0.2V152c0-3.5-2.2-4.7-4.5-4.7c-0.9,0-3.3,0.7-4.1,0.9v16.3l-0.2,0.2h-2.8l-0.2-0.2V149z"/>
		<path fill="#0277BD" d="M330.3,151.4c0-4.1,2.9-7,7.8-7c3,0,5.7,1.4,6.8,4.1l-0.1,0.2l-2.4,0.8l-0.3-0.1c-0.7-1.4-2.2-2.2-4.2-2.2
			c-2.7,0-4.4,1.6-4.4,4.7v5.5c0,3.1,1.7,4.7,4.4,4.7c2.5,0,3.7-0.9,4.4-2.1l0.3-0.1l2.4,0.8l0.1,0.2c-1,2.6-3.6,4-7,4
			c-4.9,0-7.8-2.9-7.8-7V151.4z"/>
		<path fill="#0277BD" d="M349.3,151.5c0-4.5,3.1-7.1,7.6-7.1c5.1,0,7,3.1,7,6c0,4-2.8,5.9-6.6,5.9c-3.9,0-4.9-2-5-2.3l0.2,1.5v2.1
			c0,3.1,1.8,4.7,4.5,4.7c2.4,0,3.6-0.8,4.4-2.1l0.3-0.1l2.4,0.8l0.1,0.2c-1,2.6-3.6,4-7,4c-4.9,0-7.9-2.4-7.9-7V151.5z
			 M356.4,153.4c2.2,0,4.2-0.7,4.2-3.2c0-1.4-1.1-2.9-3.8-2.9c-2.7,0-4.3,1.6-4.3,4.7v0.7C352.5,152.6,354.3,153.4,356.4,153.4z"/>
		<path fill="#0277BD" d="M369.3,149l-1-3.8l0.2-0.2l2.5-0.4l0.2,0.2l1.1,2.8c0.2-0.5,1.3-3.3,5.5-3.3l0.2,0.2l-0.6,3.4l-0.3,0.2
			c-0.6-0.3-1.2-0.4-2.1-0.4c-0.9,0-1.7,0.1-2.5,0.4v16.3l-0.2,0.2h-2.8l-0.2-0.2V149z"/>
		<path fill="#0277BD" d="M396.9,140.8h-7.5l-0.2-0.2v-2.8l0.2-0.2h18.9l0.2,0.2l-0.7,2.8l-0.2,0.2h-7.2v23.7l-0.2,0.2h-3l-0.2-0.2
			V140.8z"/>
		<path fill="#0277BD" d="M408.7,151.3c0-4.5,3.3-7,7.7-7c4.4,0,7.7,2.5,7.7,7v6.9c0,4.5-3.3,7-7.7,7c-4.4,0-7.7-2.5-7.7-7V151.3z
			 M416.4,162.3c2.8,0,4.5-1.6,4.5-4.7V152c0-3.1-1.7-4.7-4.5-4.7c-2.9,0-4.5,1.6-4.5,4.7v5.6C411.9,160.6,413.5,162.3,416.4,162.3z
			"/>
		<path fill="#0277BD" d="M432.4,158.9c0,0-4.3-1.2-4.3-7c0-4.7,2.9-7.3,7.6-7.3h4l4.4-0.9l0.2,0.2l0.4,2.2l-0.2,0.3l-2.7,0.8
			c1.3,0.8,2,2.9,2,4.9c0,4.4-2.9,7.4-7.7,7.4c-1.4,0-2.6-0.2-2.6-0.2s-0.2,0.6-0.2,1.2c0,1.6,0.9,2.6,2.4,2.6h2.5
			c3.9,0,5.9,2.3,5.9,5.3c0,3.8-3.8,5.6-7.6,5.6c-3.9,0-7.2-1.2-8.4-3.9l0.1-0.3l2.4-1.1l0.3,0.1c0,0,0.9,2.3,5.6,2.3
			c2.9,0,4.4-1.4,4.4-2.9c0-1.2-0.9-2.3-2.7-2.3h-2.5c-3.3,0-5.1-1.8-5.1-3.7C430.6,160.8,431.4,159.6,432.4,158.9z M440.6,152
			c0-3.2-1.6-4.7-4.7-4.7c-2.7,0-4.6,1.6-4.6,4.7c0,3.1,1.6,4.7,4.6,4.7C439,156.6,440.6,155.1,440.6,152z"/>
		<path fill="#0277BD" d="M448.4,151.5c0-4.5,3.1-7.1,7.6-7.1c5.1,0,7,3.1,7,6c0,4-2.8,5.9-6.6,5.9c-3.9,0-4.9-2-5-2.3l0.2,1.5v2.1
			c0,3.1,1.8,4.7,4.5,4.7c2.4,0,3.6-0.8,4.4-2.1l0.3-0.1l2.4,0.8l0.1,0.2c-1,2.6-3.6,4-7,4c-4.9,0-7.9-2.4-7.9-7V151.5z
			 M455.5,153.4c2.2,0,4.2-0.7,4.2-3.2c0-1.4-1.1-2.9-3.8-2.9c-2.7,0-4.3,1.6-4.3,4.7v0.7C451.6,152.6,453.4,153.4,455.5,153.4z"/>
		<path fill="#0277BD" d="M468.8,147.7h-2.2l-0.2-0.2V145l0.2-0.2h2.3l0.4-4.1l0.2-0.2l2.3-0.3l0.2,0.2v4.5h6.7l0.2,0.2l-0.8,2.5
			l-0.3,0.2H472v9.7c0,2.7,1.3,4.8,3.5,4.8c1.5,0,3-1.2,3-1.2l0.3,0l1.2,2.3l-0.1,0.3c-1.3,0.9-2.9,1.6-4.7,1.6
			c-3.7,0-6.5-2.5-6.5-7.5V147.7z"/>
		<path fill="#0277BD" d="M483.5,136.1l0.2-0.2l2.8-0.4l0.2,0.2v10.1l-0.2,1.8c0.3-0.7,1.7-3.1,5.8-3.1c3.5,0,6.2,2.4,6.2,7v13.2
			l-0.2,0.2h-2.8l-0.2-0.2V152c0-3.5-2-4.7-4.3-4.7c-0.9,0-3.5,0.7-4.2,0.9v16.3l-0.2,0.2h-2.8l-0.2-0.2V136.1z"/>
		<path fill="#0277BD" d="M503.8,151.5c0-4.5,3.1-7.1,7.6-7.1c5.1,0,7,3.1,7,6c0,4-2.8,5.9-6.6,5.9c-3.9,0-4.9-2-5-2.3l0.2,1.5v2.1
			c0,3.1,1.8,4.7,4.5,4.7c2.4,0,3.6-0.8,4.4-2.1l0.3-0.1l2.4,0.8l0.1,0.2c-1,2.6-3.6,4-7,4c-4.9,0-7.9-2.4-7.9-7V151.5z M511,153.4
			c2.2,0,4.2-0.7,4.2-3.2c0-1.4-1.1-2.9-3.8-2.9c-2.7,0-4.3,1.6-4.3,4.7v0.7C507.1,152.6,508.8,153.4,511,153.4z"/>
		<path fill="#0277BD" d="M523.8,149l-1-3.8l0.2-0.2l2.5-0.4l0.2,0.2l1.1,2.8c0.2-0.5,1.3-3.3,5.5-3.3l0.2,0.2L532,148l-0.3,0.2
			c-0.6-0.3-1.2-0.4-2.1-0.4c-0.9,0-1.7,0.1-2.5,0.4v16.3l-0.2,0.2H524l-0.2-0.2V149z"/>
		<path fill="#0277BD" d="M535.2,160.7l0.2-0.2h3.7l0.2,0.2v3.8l-0.2,0.2h-3.7l-0.2-0.2V160.7z"/>
	</g>
</g>
<g>
	<path fill="#0082CA" d="M534.7,137.7l0.2-0.3l0,0c0.1,0.1,0.3,0.2,0.5,0.2c0.2,0,0.4-0.1,0.4-0.3c0-0.2-0.2-0.3-0.4-0.4
		c-0.3-0.1-0.7-0.3-0.7-0.7c0-0.5,0.4-0.7,0.8-0.7c0.4,0,0.7,0.2,0.7,0.2l0,0l-0.2,0.3l0,0c0,0-0.2-0.2-0.5-0.2
		c-0.2,0-0.4,0.1-0.4,0.3s0.2,0.3,0.4,0.3c0.3,0.1,0.7,0.3,0.7,0.7c0,0.6-0.5,0.7-0.9,0.7C535.1,138,534.7,137.8,534.7,137.7
		L534.7,137.7z"/>
	<path fill="#0082CA" d="M536.9,135.6L536.9,135.6l0.4-0.1l0,0l0.8,1.4l0.8-1.3l0,0l0.4,0l0,0v2.5l0,0h-0.4l0,0v-1.6l-0.1,0.3
		l-0.4,0.7l0,0h-0.3l0,0l-0.4-0.7l-0.1-0.2v1.6l0,0h-0.4l0,0V135.6z"/>
</g>
</svg>
