<?xml version="1.0" encoding="utf-8"?>
<!-- Generator: Adobe Illustrator 18.0.0, SVG Export Plug-In . SVG Version: 6.00 Build 0)  -->
<!DOCTYPE svg PUBLIC "-//W3C//DTD SVG 1.1//EN" "http://www.w3.org/Graphics/SVG/1.1/DTD/svg11.dtd">
<svg version="1.1" id="Layer_1" xmlns="http://www.w3.org/2000/svg" xmlns:xlink="http://www.w3.org/1999/xlink" x="0px" y="0px"
	 width="79px" height="88.5px" viewBox="0 0 79 88.5" enable-background="new 0 0 79 88.5" xml:space="preserve">
<g>
	<g>
		<g>
			<g>
				<path fill="#0082CA" d="M46.4,26.2c-0.9,1-1.9,1.7-6.6,4.4C21.2,41.3,2.6,50.6,1.1,62.4C1,63.1,0.9,64,0.9,64.6
					c0-2.6-0.1-6.1-0.1-8.7c0-1,0-2.6,0.8-4.6C7.7,35.5,39.2,26,45.5,25.2c0.2,0,1.1-0.2,1.3,0C47.1,25.5,46.6,26,46.4,26.2z"/>
				<path fill="#0082CA" d="M42.2,13.7c-0.9,0.8-2.2,1.7-6,3.9C19.1,27.7,1,37.6,0.8,49.9l0-8.6c0-1,0.1-2.3,0.4-3.3
					c4.7-15.7,32.5-24.6,40-25.8c0.4-0.1,1.7-0.3,1.9,0C43.4,12.5,42.8,13.2,42.2,13.7z"/>
				<path fill="#0082CA" d="M37.2,3.7c-1,0.4-1.5,0.6-6.4,2.9c-19,8.7-29.4,18.3-30,29l0-8.8v-0.2C0.8,9.8,26.9,2.5,37.4,1
					C37.8,1,39,0.7,39.7,1C40.6,1.3,39.9,2.5,37.2,3.7z"/>
			</g>
			<g>
				<path fill="#0082CA" d="M0.8,57.8c0,0,0,5,0,5.9c0,1,0.1,1.9,0.1,1.9c2.5,15.4,26.7,23.5,27.6,21.8c0.2-0.5-1.1-1.5-8.8-7.1
					C6.5,70.8,1.1,63.7,0.8,55.9"/>
				<path fill="#0082CA" d="M0.8,41.3l0,8.7c0.1,1,0.1,2.2,0.4,3.2C6,68.6,31.3,76,32,74.6c0.3-0.6-1.2-1.7-9.2-7
					C7.7,57.6,1.2,49.7,0.8,41.3"/>
				<path fill="#0082CA" d="M0.8,26.9l0,8.7c0,0.6,0,1.3,0.2,2c3.9,17.2,33.9,26.1,34.8,24.3c0.3-0.6-1.1-1.4-4.2-3.6
					c-3.8-2.6-7.8-4.7-11.6-7.3C6.8,42,1.3,35,0.8,26.9"/>
			</g>
			<path fill="#0082CA" d="M78.2,77.8c0,0.3-0.1,0.6-0.1,0.8c-0.9,3-5.6,5.8-10.4,7.2c-4.2,1.2-8.8,1.3-8.9,0.2
				c-0.1-1.2,3.9-1.6,8.9-4.7c6-3.7,10.5-8.3,10.5-11.2 M78.2,55.9c0,0,0,7.6,0,8.1c0,0.5-0.1,0.8-0.2,1c-2.9,7.3-20.2,10.9-21,9.4
				c-0.3-0.7,1.2-1.5,6.2-4.5C72.1,64.7,77.9,60.9,78.2,55.9 M78.3,41.7l0,8.3c0,0,0,0.1,0,0.4c-1.4,8.2-24.1,12.7-24.9,11.2
				c-0.3-0.6,0.7-1.3,6.6-4.5C72,50.6,77.7,47,78.3,41.7"/>
			<path fill="#0082CA" d="M19.6,37c3.7,4.6,19.4,13.6,26.5,17.5c18.7,10.5,23.2,13,27.7,16.8c3,2.6,4.5,4.1,4.4,6.5l0-7.7
				c0-0.7-0.1-1.3-0.3-1.8c-4.8-11.4-49-29.2-57.4-32.3c-0.4-0.1-1.4-0.5-1.6-0.3C18.8,36,19.4,36.8,19.6,37z M22.8,24.9
				c3.3,3.7,15.2,10.7,26.7,17.3c12.4,7,21.3,12,25.8,16.5c2.2,2.4,2.7,3.4,2.9,5.3c0,0,0-5.7,0-8.1l0-0.3
				C76.5,44.1,32.4,26.9,23.8,24c-0.4-0.2-1.4-0.6-1.7-0.3C21.9,23.8,22.5,24.7,22.8,24.9z M26.3,12.9c3.9,4,17.8,11.9,26.6,16.9
				c8.9,5.1,19.9,11.4,23.7,16.2c1,1.5,1.5,2.1,1.6,4c0,0,0-7.3,0-8.3c0-0.6-0.1-1.1-0.1-1.1c-3.4-11.2-42.5-25.9-50.9-28.7
				c-0.3-0.1-1.6-0.6-1.8-0.4C25.1,11.8,26.1,12.7,26.3,12.9z"/>
		</g>
	</g>
</g>
</svg>
